<svg width="32" height="30" viewBox="0 0 32 30" fill="none" xmlns="http://www.w3.org/2000/svg">
<path d="M15.9909 3.57127C9.01587 -2.52939 0.14723 2.83082 0.00180337 10.0975C-0.0352563 11.9494 0.499328 13.7533 1.56343 15.4164H8.46066L9.68744 13.3716C10.0437 12.778 10.9057 12.7589 11.2821 13.3507L13.8705 17.4181L17.6435 9.45301C17.9726 8.758 18.9532 8.73594 19.3161 9.40989L22.5503 15.4164H30.4184C36.2468 6.30706 24.7279 -4.07034 15.9909 3.57127Z" fill="#0061FF"/>
<path d="M21.1656 16.7982L18.5448 11.931L14.8387 19.7547C14.5234 20.4204 13.5961 20.4782 13.2007 19.8567L10.5152 15.6369L9.79574 16.836C9.62631 17.1184 9.32121 17.2911 8.99192 17.2911H3.04688C3.23324 17.4862 2.24 16.4949 15.3302 29.5173C15.6958 29.8811 16.2868 29.8812 16.6525 29.5173C29.5412 16.6953 28.7498 17.4858 28.9358 17.2911H21.9909C21.646 17.2912 21.329 17.1018 21.1656 16.7982Z" fill="#0061FF"/>
</svg>
