<svg width="234" height="45" viewBox="0 0 234 45" fill="none" xmlns="http://www.w3.org/2000/svg">
<path d="M47.7155 0.357085C42.5616 3.23412 28.0458 15.0713 26.2985 16.5098C24.5431 15.0713 10.0273 3.23412 4.87341 0.357085C2.97376 -0.706499 0 0.739658 0 2.92804V41.1865C0 44.0941 3.95158 44.8287 5.61076 43.8952C9.35394 41.8369 22.4431 30.8414 21.1126 29.2039C20.9169 28.9292 20.694 28.673 20.4472 28.4387C18.9644 27.0614 7.14984 34.8738 7.14984 34.8738V10.0365C7.14984 10.0365 18.9725 20.9248 24.1263 22.7918C24.6923 22.9629 25.2803 23.0582 25.8736 23.0749H26.6752C27.2685 23.0582 27.8566 22.9629 28.4225 22.7918C33.5844 20.9248 45.3992 10.0365 45.3992 10.0365V34.8738C45.3992 34.8738 33.5844 27.0614 32.1016 28.4387C31.8548 28.673 31.632 28.9292 31.4363 29.2039C30.1137 30.8414 43.1949 41.8369 46.938 43.8952C48.6293 44.8287 52.5488 44.0941 52.5488 41.1865V2.92804C52.5889 0.739658 49.6152 -0.706499 47.7155 0.357085Z" fill="#A5D5C8"/>
<path d="M89.5069 9.80681C89.6886 9.97225 89.8322 10.172 89.9288 10.3933C90.0254 10.6146 90.0728 10.8526 90.0679 11.0923V34.2617C90.0725 34.5073 90.0244 34.7512 89.9268 34.9784C89.8292 35.2057 89.6841 35.4116 89.5002 35.5835C89.3164 35.7554 89.0979 35.8897 88.8578 35.9782C88.6177 36.0666 88.3613 36.1074 88.1042 36.098C87.8389 36.1086 87.5738 36.0688 87.3248 35.9808C87.0757 35.8928 86.8475 35.7584 86.6534 35.5854C86.4693 35.4136 86.3245 35.2073 86.2279 34.9795C86.1314 34.7517 86.0852 34.5073 86.0923 34.2617V16.5327L78.3092 27.7883C78.1195 28.0223 77.8825 28.2175 77.612 28.3621C77.3526 28.5133 77.0489 28.5804 76.7463 28.5534C76.4648 28.5709 76.1845 28.504 75.9447 28.3621C75.6743 28.2175 75.4372 28.0223 75.2475 27.7883L67.4245 16.1883V34.2617C67.4437 34.7489 67.2624 35.224 66.9194 35.5854C66.7484 35.7581 66.5402 35.8933 66.3091 35.9818C66.078 36.0703 65.8296 36.1099 65.5809 36.098C65.3374 36.107 65.0946 36.0659 64.8692 35.9774C64.6438 35.889 64.4408 35.7553 64.2743 35.5854C63.9314 35.224 63.7502 34.7489 63.7695 34.2617V11.0923C63.7724 10.6101 63.9739 10.1484 64.3305 9.80681C64.513 9.62698 64.7327 9.48523 64.9755 9.39042C65.2183 9.2956 65.479 9.24978 65.7412 9.25591C66.0688 9.25748 66.3909 9.33637 66.6789 9.4855C66.9752 9.62962 67.231 9.83949 67.4245 10.0976L76.9306 23.8706L86.5491 10.0976C86.7226 9.84175 86.9599 9.63098 87.2396 9.4841C87.5194 9.33722 87.8329 9.25882 88.1521 9.25591C88.6597 9.27253 89.1427 9.4689 89.5069 9.80681Z" fill="black"/>
<path d="M112.878 16.2808C113.061 16.4608 113.203 16.6743 113.297 16.9084C113.39 17.1425 113.433 17.3923 113.423 17.6427V34.2623C113.428 34.5029 113.382 34.742 113.289 34.9654C113.195 35.1888 113.055 35.392 112.878 35.563C112.507 35.8994 112.015 36.087 111.503 36.087C110.992 36.087 110.5 35.8994 110.129 35.563C109.955 35.3859 109.819 35.1779 109.73 34.9507C109.64 34.7236 109.599 34.4818 109.608 34.2393V33.2445C108.846 34.1986 107.875 34.9821 106.762 35.54C105.568 36.1644 104.228 36.4883 102.867 36.4812C101.114 36.498 99.3936 36.0303 97.9132 35.1345C96.4097 34.2237 95.2022 32.9305 94.4265 31.4004C93.5926 29.7189 93.1602 27.8818 93.1602 26.0214C93.1602 24.161 93.5926 22.3237 94.4265 20.6422C95.1999 19.1155 96.4013 17.823 97.8972 16.9082C99.2044 16.124 100.698 15.6674 102.239 15.5804C103.78 15.4935 105.319 15.7791 106.714 16.4108C107.842 16.9047 108.837 17.6375 109.624 18.5533V17.6351C109.609 17.1411 109.796 16.661 110.145 16.296C110.318 16.1186 110.53 15.979 110.765 15.8865C111 15.7941 111.253 15.7511 111.507 15.7604C111.761 15.7538 112.013 15.7965 112.249 15.886C112.484 15.9754 112.698 16.1098 112.878 16.2808ZM106.658 32.1962C107.648 31.569 108.441 30.6961 108.95 29.6712C109.504 28.5311 109.778 27.2855 109.752 26.029C109.776 24.7876 109.502 23.5573 108.95 22.4327C108.439 21.4026 107.647 20.5225 106.658 19.8847C105.668 19.2523 104.499 18.9239 103.308 18.9436C102.122 18.9244 100.958 19.2441 99.965 19.8617C98.9726 20.4899 98.1798 21.366 97.6727 22.3945C97.1336 23.5384 96.8549 24.7785 96.8549 26.0329C96.8549 27.2872 97.1336 28.5273 97.6727 29.6712C98.1824 30.6961 98.9748 31.569 99.965 32.1962C100.968 32.7965 102.128 33.1149 103.311 33.1149C104.495 33.1149 105.655 32.7965 106.658 32.1962Z" fill="black"/>
<path d="M117.692 12.9138C117.513 12.7495 117.374 12.5486 117.286 12.3261C117.199 12.1035 117.165 11.865 117.187 11.6283V11.0162C117.163 10.7737 117.2 10.529 117.295 10.3027C117.39 10.0765 117.54 9.87514 117.733 9.7154C118.233 9.42585 118.816 9.29215 119.4 9.33282C119.966 9.28898 120.531 9.42923 121.003 9.73072C121.183 9.8951 121.321 10.096 121.409 10.3185C121.496 10.541 121.53 10.7795 121.508 11.0162V11.6283C121.535 11.869 121.502 12.1124 121.411 12.3386C121.321 12.5647 121.175 12.7671 120.987 12.9292C120.496 13.2223 119.92 13.3565 119.344 13.3118C118.762 13.3607 118.18 13.2204 117.692 12.9138ZM120.738 35.5628C120.561 35.7398 120.347 35.8791 120.109 35.9714C119.871 36.0637 119.616 36.1069 119.36 36.0984C119.108 36.1045 118.859 36.06 118.626 35.9677C118.394 35.8754 118.185 35.7375 118.013 35.5628C117.836 35.3919 117.696 35.1887 117.602 34.9652C117.509 34.7418 117.463 34.5027 117.468 34.2621V17.6808C117.464 17.4403 117.509 17.2013 117.603 16.9779C117.697 16.7545 117.836 16.5512 118.013 16.38C118.185 16.2053 118.394 16.0674 118.626 15.9751C118.859 15.8828 119.108 15.8383 119.36 15.8444C119.616 15.8359 119.871 15.8792 120.109 15.9715C120.347 16.0638 120.561 16.203 120.738 16.38C120.915 16.5512 121.055 16.7545 121.148 16.9779C121.242 17.2013 121.288 17.4403 121.283 17.6808V34.2621C121.288 34.5027 121.243 34.7418 121.149 34.9652C121.055 35.1887 120.916 35.3919 120.738 35.5628Z" fill="black"/>
<path d="M128.939 35.5624C128.762 35.7356 128.55 35.8724 128.315 35.9645C128.081 36.0566 127.83 36.1021 127.576 36.098C127.325 36.1041 127.075 36.0596 126.843 35.9673C126.611 35.875 126.402 35.7371 126.229 35.5624C126.052 35.3914 125.913 35.1883 125.819 34.9648C125.725 34.7414 125.679 34.5023 125.684 34.2617V9.60021C125.683 9.35812 125.733 9.11831 125.829 8.89454C125.926 8.67078 126.069 8.46758 126.248 8.29676C126.428 8.12593 126.641 7.99079 126.876 7.89932C127.111 7.80785 127.362 7.76186 127.616 7.76388C127.866 7.75835 128.115 7.8032 128.345 7.89549C128.576 7.98778 128.784 8.1254 128.955 8.29946C129.132 8.47043 129.272 8.67363 129.365 8.89707C129.459 9.1205 129.505 9.35961 129.5 9.60021V34.2617C129.504 34.5035 129.457 34.7437 129.36 34.9673C129.264 35.191 129.12 35.3935 128.939 35.5624Z" fill="black"/>
<path d="M149.196 16.9152C150.685 17.828 151.885 19.111 152.667 20.6263C153.528 22.2905 153.962 24.1265 153.933 25.9825C153.961 27.8531 153.527 29.7036 152.667 31.3846C151.896 32.917 150.694 34.2149 149.196 35.1339C147.763 36.0174 146.093 36.4852 144.387 36.4806C143.033 36.4885 141.696 36.1841 140.491 35.593C139.367 35.0706 138.37 34.3274 137.566 33.4122V34.5218C137.571 34.7624 137.525 35.0015 137.432 35.2249C137.338 35.4484 137.198 35.6516 137.021 35.8225C136.657 36.1628 136.168 36.3533 135.658 36.3533C135.149 36.3533 134.66 36.1628 134.296 35.8225C134.115 35.6489 133.974 35.4419 133.88 35.2143C133.786 34.9867 133.742 34.7432 133.751 34.4988V9.56965C133.742 9.32713 133.784 9.08534 133.873 8.85819C133.962 8.63103 134.098 8.42299 134.272 8.24592C134.642 7.90953 135.135 7.72192 135.646 7.72192C136.158 7.72192 136.65 7.90953 137.021 8.24592C137.198 8.41689 137.338 8.62008 137.432 8.84352C137.525 9.06696 137.571 9.30607 137.566 9.54667V18.8893C138.293 17.8997 139.254 17.0872 140.371 16.5173C141.569 15.8617 142.926 15.5186 144.307 15.5226C146.044 15.5242 147.742 16.0082 149.196 16.9152ZM147.152 32.1727C148.153 31.5356 148.951 30.6491 149.461 29.6094C150.011 28.4764 150.285 27.2389 150.262 25.9901C150.286 24.7487 150.012 23.5185 149.461 22.3939C148.95 21.3628 148.151 20.4862 147.152 19.8611C146.162 19.2498 145.005 18.9305 143.826 18.943C142.631 18.926 141.457 19.2453 140.451 19.8611C139.449 20.4748 138.64 21.337 138.111 22.3556C137.556 23.487 137.281 24.7256 137.309 25.9748C137.283 27.2313 137.557 28.4769 138.111 29.617C138.626 30.6475 139.423 31.5255 140.419 32.1574C141.42 32.7873 142.596 33.1152 143.794 33.0986C144.986 33.1214 146.157 32.7985 147.152 32.1727Z" fill="black"/>
<path d="M173.573 16.5707C173.749 16.7423 173.887 16.9458 173.979 17.1693C174.072 17.3927 174.116 17.6315 174.11 17.8716V28.0559C174.11 30.7136 173.343 32.7771 171.81 34.2462C170.276 35.7153 168.101 36.4499 165.285 36.4499C162.504 36.4499 160.356 35.6847 158.825 34.2462C157.294 32.8077 156.54 30.711 156.54 28.0559V17.8716C156.536 17.631 156.582 17.392 156.675 17.1686C156.769 16.9452 156.908 16.7419 157.085 16.5707C157.256 16.3967 157.464 16.259 157.695 16.1667C157.926 16.0745 158.174 16.0296 158.424 16.0351C158.682 16.026 158.938 16.069 159.177 16.1613C159.416 16.2536 159.632 16.3931 159.811 16.5707C159.988 16.7419 160.127 16.9452 160.221 17.1686C160.314 17.392 160.36 17.631 160.356 17.8716V28.0559C160.356 31.4073 161.999 33.0806 165.285 33.0755C165.965 33.1208 166.648 33.0322 167.29 32.815C167.933 32.5978 168.522 32.2567 169.02 31.8129C169.95 30.7711 170.411 29.4207 170.303 28.0559V17.8716C170.296 17.6308 170.341 17.3913 170.435 17.1677C170.529 16.944 170.669 16.7409 170.848 16.5707C171.018 16.3959 171.226 16.2577 171.457 16.1653C171.687 16.073 171.936 16.0286 172.186 16.0351C172.444 16.0265 172.7 16.0697 172.939 16.162C173.178 16.2543 173.394 16.3935 173.573 16.5707Z" fill="black"/>
<path d="M183.708 19.5936V31.0099C183.708 32.2878 184.309 32.9228 185.512 32.9228C185.77 32.9097 186.026 32.866 186.273 32.7927C186.532 32.7104 186.802 32.6639 187.075 32.655C187.246 32.6547 187.415 32.6926 187.568 32.7656C187.721 32.8387 187.854 32.9449 187.956 33.0758C188.113 33.2655 188.223 33.4865 188.278 33.7225C188.333 33.9584 188.332 34.2032 188.274 34.4385C188.216 34.6738 188.104 34.8937 187.945 35.0817C187.786 35.2697 187.584 35.421 187.355 35.5243C186.706 35.9086 185.955 36.1078 185.191 36.0982C184.381 36.106 183.573 36.016 182.786 35.8304C181.986 35.6127 181.291 35.1333 180.823 34.4761C180.171 33.4881 179.868 32.3272 179.957 31.1629V19.5936H177.633C177.399 19.6002 177.166 19.5616 176.948 19.4801C176.731 19.3986 176.533 19.2758 176.366 19.1192C176.201 18.9607 176.072 18.7716 175.987 18.5637C175.901 18.3558 175.861 18.1334 175.869 17.9101C175.858 17.69 175.896 17.47 175.982 17.2653C176.067 17.0606 176.199 16.876 176.366 16.7242C176.535 16.5714 176.734 16.4521 176.951 16.3733C177.168 16.2945 177.4 16.2577 177.633 16.2651H179.957V13.0437C179.953 12.8033 180 12.5645 180.093 12.3413C180.187 12.118 180.326 11.9147 180.502 11.7429C180.679 11.5659 180.894 11.4267 181.131 11.3344C181.369 11.2421 181.624 11.1988 181.881 11.2074C182.132 11.2012 182.382 11.2457 182.614 11.338C182.846 11.4303 183.055 11.5683 183.227 11.7429C183.404 11.9147 183.542 12.118 183.636 12.3413C183.73 12.5645 183.776 12.8033 183.772 13.0437V16.2345H187.01C187.244 16.2259 187.478 16.2635 187.696 16.3451C187.914 16.4266 188.112 16.5503 188.277 16.7084C188.443 16.8665 188.573 17.0555 188.658 17.2636C188.743 17.4717 188.783 17.6944 188.774 17.9178C188.781 18.1375 188.741 18.3564 188.655 18.5605C188.57 18.7646 188.441 18.9497 188.277 19.1039C187.935 19.411 187.48 19.5761 187.01 19.5629L183.708 19.5936Z" fill="black"/>
<path d="M195.023 35.5625C194.846 35.7365 194.634 35.8738 194.4 35.9659C194.165 36.0581 193.914 36.1031 193.66 36.0981C193.409 36.1042 193.159 36.0597 192.927 35.9674C192.695 35.8751 192.486 35.7372 192.314 35.5625C192.137 35.3912 191.999 35.1877 191.907 34.9643C191.814 34.7408 191.77 34.5019 191.776 34.2618V9.60031C191.775 9.35887 191.824 9.11968 191.921 8.89642C192.017 8.67316 192.159 8.47029 192.338 8.29957C192.516 8.12884 192.729 7.99359 192.963 7.90166C193.197 7.80973 193.447 7.76297 193.7 7.76398C193.952 7.75785 194.201 7.80236 194.433 7.89466C194.665 7.98695 194.874 8.12492 195.047 8.29957C195.223 8.47091 195.362 8.67435 195.454 8.89782C195.546 9.12129 195.59 9.36019 195.584 9.60031V34.2618C195.589 34.5038 195.543 34.7443 195.446 34.9682C195.349 35.1921 195.205 35.3945 195.023 35.5625Z" fill="black"/>
<path d="M217.242 26.4736C216.879 26.7835 216.407 26.9527 215.92 26.948H201.797C201.906 28.6611 202.704 30.2678 204.025 31.4319C205.322 32.5578 207.026 33.1611 208.778 33.1153C209.848 33.1549 210.915 32.9721 211.904 32.5796C212.686 32.2344 213.404 31.7691 214.028 31.2024C214.379 30.9888 214.783 30.8697 215.198 30.858C215.411 30.8539 215.623 30.8926 215.819 30.9718C216.015 31.0509 216.192 31.1685 216.337 31.3171C216.486 31.4567 216.603 31.6236 216.683 31.8076C216.763 31.9917 216.803 32.1891 216.802 32.3883C216.789 32.6723 216.711 32.9501 216.573 33.2016C216.434 33.4531 216.238 33.6719 216 33.8422C215.108 34.6552 214.057 35.2922 212.906 35.7168C211.664 36.2204 210.328 36.4806 208.979 36.482C206.987 36.5225 205.019 36.0718 203.264 35.1735C201.65 34.3399 200.325 33.0773 199.448 31.539C198.534 29.9152 198.07 28.0949 198.102 26.2517C198.058 24.2879 198.535 22.3455 199.488 20.6047C200.327 19.0652 201.591 17.774 203.143 16.8707C204.609 16.0123 206.297 15.5619 208.017 15.5699C209.71 15.5663 211.373 16.0028 212.826 16.8325C214.325 17.6766 215.57 18.8757 216.441 20.3139C217.359 21.8277 217.843 23.5459 217.844 25.2952C217.834 25.5206 217.776 25.7418 217.673 25.9446C217.569 26.1475 217.423 26.3276 217.242 26.4736ZM204.121 20.1533C202.939 21.098 202.167 22.4292 201.957 23.8873H213.788V23.5812C213.732 22.9295 213.535 22.296 213.208 21.7214C212.88 21.1469 212.431 20.644 211.888 20.2451C210.796 19.3942 209.427 18.9342 208.017 18.9444C206.613 18.9159 205.24 19.342 204.121 20.1533Z" fill="black"/>
<path d="M232.694 16.0893C232.924 16.2248 233.115 16.4137 233.248 16.6385C233.381 16.8633 233.452 17.1165 233.455 17.3747C233.474 17.6285 233.439 17.8833 233.352 18.1238C233.265 18.3644 233.129 18.5858 232.95 18.7749C232.792 18.9291 232.602 19.0508 232.393 19.1324C232.183 19.214 231.958 19.2537 231.732 19.2493C231.362 19.2235 230.997 19.1462 230.65 19.0198C230.222 18.8692 229.774 18.779 229.319 18.7521C228.446 18.7729 227.602 19.0628 226.915 19.5784C226.082 20.1796 225.419 20.9683 224.983 21.8739C224.484 22.872 224.231 23.9664 224.246 25.0724V34.3002C224.251 34.5408 224.205 34.7799 224.111 35.0034C224.018 35.2268 223.878 35.4301 223.701 35.6011C223.33 35.9375 222.838 36.125 222.326 36.125C221.814 36.125 221.322 35.9375 220.951 35.6011C220.778 35.424 220.642 35.2159 220.553 34.9887C220.463 34.7616 220.422 34.5198 220.43 34.2773V17.8874C220.426 17.6469 220.472 17.4078 220.565 17.1844C220.659 16.9611 220.798 16.7578 220.975 16.5866C221.146 16.4125 221.354 16.2749 221.585 16.1826C221.816 16.0903 222.064 16.0455 222.314 16.051C222.572 16.0418 222.828 16.0849 223.067 16.1772C223.306 16.2695 223.522 16.409 223.701 16.5866C223.878 16.7578 224.017 16.9611 224.111 17.1844C224.204 17.4078 224.25 17.6469 224.246 17.8874V19.8385C224.812 18.6032 225.728 17.5433 226.891 16.7779C228.07 16.0029 229.467 15.5844 230.898 15.5766C231.538 15.5636 232.166 15.743 232.694 16.0893Z" fill="black"/>
</svg>
