 <svg width="736" height="735" viewBox="0 0 736 735" fill="none" xmlns="http://www.w3.org/2000/svg">
                    <g clip-path="url(#clip0_120_2172)">
                        <g style="mix-blend-mode:multiply" opacity="0.3">
                            <path
                                d="M430.84 233.401C429.408 232.565 427.956 231.766 426.496 230.976C427.956 231.757 429.398 232.565 430.84 233.401Z"
                                fill="#662D91" />
                        </g>
                        <g style="mix-blend-mode:multiply" opacity="0.3">
                            <path
                                d="M374.063 709.2C372.621 708.374 371.179 707.575 369.719 706.785C371.17 707.565 372.621 708.374 374.054 709.209L374.063 709.2Z"
                                fill="#662D91" />
                        </g>
                        <g style="mix-blend-mode:multiply" opacity="0.3">
                            <path
                                d="M218.874 611.753C218.874 611.864 218.874 611.974 218.874 612.084V612.506C218.874 612.8 218.874 613.085 218.874 613.425V613.654C218.865 612.984 218.865 612.369 218.874 611.753Z"
                                fill="#662D91" />
                        </g>
                        <g style="mix-blend-mode:multiply" opacity="0.3">
                            <path
                                d="M218.874 611.753C218.874 611.864 218.874 611.974 218.874 612.084V612.506C218.874 612.8 218.874 613.085 218.874 613.425V613.654C218.865 612.984 218.865 612.369 218.874 611.753Z"
                                fill="#662D91" />
                        </g>
                        <path style="mix-blend-mode:multiply"
                            d="M239.043 664.132C204.987 629.057 205.639 573.206 240.503 539.343C275.367 505.48 331.227 506.463 365.283 541.529C399.339 576.595 398.677 632.455 363.822 666.318C328.967 700.181 273.145 699.189 239.043 664.132Z"
                            fill="url(#paint0_radial_120_2172)" />
                        <path
                            d="M414.492 576.099C414.487 593.575 409.3 610.657 399.586 625.185C389.873 639.712 376.07 651.034 359.923 657.717C343.776 664.401 326.009 666.146 308.87 662.733C291.731 659.32 275.988 650.901 263.634 638.541C251.279 626.181 242.867 610.435 239.46 593.295C236.054 576.154 237.807 558.388 244.497 542.244C251.187 526.099 262.515 512.301 277.047 502.594C291.578 492.887 308.662 487.706 326.138 487.708C337.744 487.707 349.237 489.993 359.96 494.435C370.682 498.877 380.425 505.388 388.63 513.597C396.835 521.805 403.342 531.55 407.78 542.275C412.217 552.999 414.498 564.493 414.492 576.099Z"
                            fill="url(#paint1_linear_120_2172)" />
                        <g style="mix-blend-mode:multiply" opacity="0.3">
                            <path d="M246.289 494.588L246.345 494.532C246.345 494.532 246.308 494.57 246.289 494.588Z"
                                fill="#662D91" />
                        </g>
                        <path style="mix-blend-mode:multiply"
                            d="M109.551 530.875C67.5044 487.58 68.3126 418.623 111.388 376.844C154.462 335.064 223.373 336.258 265.41 379.544C307.447 422.83 306.639 491.787 263.573 533.576C220.508 575.365 151.579 574.18 109.551 530.875Z"
                            fill="url(#paint2_radial_120_2172)" />
                        <path style="mix-blend-mode:multiply"
                            d="M118.948 521.507C76.9105 478.212 77.7096 409.246 120.785 367.475C163.859 325.704 232.733 326.889 274.78 370.148C316.826 413.406 315.999 482.4 272.943 524.189C229.886 565.978 160.985 564.784 118.948 521.507Z"
                            fill="url(#paint3_radial_120_2172)" />
                        <path
                            d="M326.129 422.241C326.136 443.816 319.745 464.908 307.765 482.85C295.784 500.792 278.751 514.778 258.821 523.039C238.891 531.3 216.959 533.466 195.798 529.261C174.637 525.057 155.199 514.671 139.941 499.418C124.683 484.165 114.291 464.73 110.079 443.571C105.867 422.412 108.025 400.479 116.28 380.546C124.534 360.613 138.515 343.576 156.453 331.589C174.39 319.602 195.48 313.204 217.055 313.204C245.977 313.202 273.717 324.687 294.172 345.135C314.626 365.583 326.122 393.319 326.129 422.241Z"
                            fill="url(#paint4_linear_120_2172)" />
                        <g style="mix-blend-mode:multiply" opacity="0.3">
                            <path d="M118.496 321.617L118.561 321.553L118.496 321.617Z" fill="#662D91" />
                        </g>
                        <!-- <path style="mix-blend-mode:multiply"
                            d="M157.052 329.075C104.508 274.97 105.518 188.783 159.302 136.57C213.086 84.3562 299.255 85.8441 351.799 139.94C404.343 194.037 403.314 280.223 349.549 332.492C295.783 384.76 209.587 383.162 157.052 329.075Z"
                            fill="url(#paint5_radial_120_2172)" />
                        <path style="mix-blend-mode:multiply"
                            d="M185.47 300.649C132.935 246.544 133.936 160.357 187.729 108.153C241.522 55.9488 327.681 57.4275 380.216 111.515C432.751 165.602 431.741 251.807 377.975 304.038C324.209 356.27 238.004 354.746 185.47 300.649Z"
                            fill="url(#paint6_radial_120_2172)" />
                        <path
                            d="M427.726 193.274C427.726 220.234 419.732 246.589 404.754 269.006C389.775 291.423 368.486 308.895 343.579 319.212C318.671 329.53 291.263 332.23 264.821 326.971C238.378 321.712 214.089 308.73 195.025 289.667C175.96 270.604 162.977 246.316 157.716 219.874C152.455 193.432 155.154 166.024 165.469 141.115C175.785 116.206 193.256 94.9163 215.672 79.9367C238.087 64.9571 264.442 56.9608 291.402 56.959C309.304 56.9578 327.031 60.4828 343.57 67.3327C360.11 74.1827 375.138 84.2234 387.797 96.8815C400.456 109.54 410.498 124.567 417.349 141.106C424.2 157.646 427.726 175.372 427.726 193.274Z"
                            fill="white" /> -->
                        <g id="circleB">
                            <path
                                d="M427.726 196.057C427.721 223.016 419.722 249.368 404.74 271.781C389.759 294.194 368.468 311.662 343.56 321.975C318.651 332.289 291.244 334.985 264.804 329.723C238.363 324.461 214.077 311.477 195.015 292.413C175.953 273.348 162.973 249.06 157.714 222.619C152.456 196.178 155.155 168.771 165.472 143.864C175.789 118.957 193.259 97.6686 215.674 82.6902C238.09 67.7118 264.443 59.7162 291.402 59.7144C309.306 59.7131 327.035 63.2391 343.577 70.0907C360.118 76.9424 375.148 86.9856 387.807 99.6467C400.466 112.308 410.507 127.339 417.357 143.881C424.206 160.423 427.73 178.153 427.726 196.057Z"
                                fill="url(#paint7_linear_120_2172)" />
                            <!-- <g style="mix-blend-mode:multiply" opacity="0.3">
                            <path d="M168.23 67.5212L168.313 67.4384L168.23 67.5212Z" fill="#662D91" />
                        </g>
                        <path style="mix-blend-mode:multiply"
                            d="M265.723 235.642C260.662 230.425 264.4 218.577 274.09 209.173C283.779 199.768 295.728 196.379 300.789 201.586C305.849 206.794 302.111 218.66 292.431 228.065C282.751 237.47 270.792 240.859 265.723 235.642Z"
                            fill="url(#paint8_radial_120_2172)" />
                        <path style="mix-blend-mode:multiply"
                            d="M251.901 224.171C246.84 218.954 250.578 207.097 260.259 197.701C269.939 188.306 281.906 184.898 286.967 190.115C292.027 195.332 288.289 207.18 278.609 216.585C268.929 225.989 256.971 229.378 251.901 224.171Z"
                            fill="url(#paint9_radial_120_2172)" />
                        <path style="mix-blend-mode:multiply"
                            d="M254.004 235.642C248.944 230.426 252.682 218.578 262.362 209.173C272.042 199.768 284.001 196.379 289.07 201.586C294.14 206.794 290.393 218.66 280.713 228.065C271.032 237.47 259.074 240.859 254.004 235.642Z"
                            fill="url(#paint10_radial_120_2172)" />
                        <path style="mix-blend-mode:multiply"
                            d="M271.573 216.548C268.666 213.517 266.722 209.693 265.986 205.559C265.249 201.425 265.754 197.165 267.435 193.317C269.117 189.469 271.9 186.205 275.434 183.937C278.968 181.669 283.095 180.498 287.294 180.572C291.492 180.646 295.575 181.962 299.027 184.354C302.479 186.745 305.145 190.105 306.69 194.01C308.234 197.915 308.588 202.19 307.706 206.296C306.824 210.401 304.746 214.154 301.734 217.08C299.72 219.027 297.341 220.558 294.735 221.585C292.128 222.613 289.344 223.116 286.543 223.066C283.742 223.017 280.978 222.416 278.409 221.297C275.84 220.179 273.517 218.565 271.573 216.548Z"
                            fill="url(#paint11_radial_120_2172)" />
                        <path style="mix-blend-mode:multiply"
                            d="M270.176 231.188C265.115 225.971 268.854 214.123 278.534 204.727C288.214 195.332 300.172 191.97 305.288 197.141C310.404 202.312 306.611 214.206 296.93 223.61C287.25 233.015 275.246 236.404 270.176 231.188Z"
                            fill="url(#paint12_radial_120_2172)" />
                        <path style="mix-blend-mode:multiply"
                            d="M256.354 219.716C251.293 214.499 255.031 202.652 264.712 193.247C274.392 183.842 286.35 180.453 291.42 185.66C296.49 190.868 292.743 202.734 283.062 212.13C273.382 221.525 261.424 224.924 256.354 219.716Z"
                            fill="url(#paint13_radial_120_2172)" />
                        <path style="mix-blend-mode:multiply"
                            d="M258.448 231.188C253.378 225.971 257.125 214.123 266.806 204.727C276.486 195.332 288.444 191.924 293.514 197.141C298.584 202.358 294.827 214.206 285.156 223.61C275.485 233.015 263.518 236.404 258.448 231.188Z"
                            fill="url(#paint14_radial_120_2172)" />
                        <path style="mix-blend-mode:multiply"
                            d="M276.027 212.102C273.118 209.073 271.172 205.25 270.433 201.115C269.694 196.981 270.197 192.72 271.877 188.871C273.557 185.022 276.339 181.756 279.873 179.486C283.407 177.217 287.533 176.044 291.733 176.117C295.932 176.19 300.016 177.505 303.468 179.896C306.921 182.287 309.588 185.647 311.134 189.553C312.679 193.458 313.033 197.733 312.152 201.84C311.27 205.946 309.192 209.699 306.18 212.626C302.11 216.552 296.649 218.702 290.995 218.604C285.341 218.506 279.958 216.167 276.027 212.102Z"
                            fill="url(#paint15_radial_120_2172)" />
                        <path
                            d="M313.977 195.277C313.977 199.5 312.725 203.628 310.378 207.14C308.032 210.652 304.697 213.389 300.795 215.005C296.893 216.621 292.6 217.044 288.457 216.22C284.315 215.396 280.51 213.362 277.524 210.376C274.537 207.39 272.504 203.585 271.68 199.442C270.856 195.3 271.279 191.007 272.895 187.105C274.511 183.203 277.248 179.868 280.76 177.521C284.271 175.175 288.4 173.923 292.623 173.923C298.287 173.923 303.718 176.172 307.723 180.177C311.727 184.182 313.977 189.613 313.977 195.277Z"
                            fill="white" /> -->
                            <g id="centerB">
                                <path
                                    d="M313.977 195.708C313.977 199.932 312.725 204.06 310.378 207.572C308.032 211.083 304.697 213.82 300.795 215.436C296.893 217.053 292.6 217.476 288.457 216.652C284.315 215.828 280.51 213.794 277.524 210.808C274.537 207.821 272.504 204.016 271.68 199.874C270.856 195.732 271.279 191.438 272.895 187.536C274.511 183.635 277.248 180.3 280.76 177.953C284.271 175.607 288.4 174.354 292.623 174.354C298.287 174.354 303.718 176.604 307.723 180.609C311.727 184.613 313.977 190.045 313.977 195.708Z"
                                    fill="url(#paint16_linear_120_2172)" />
                                <path
                                    d="M295.838 193.026C296.014 192.855 296.154 192.65 296.25 192.424C296.346 192.198 296.395 191.954 296.395 191.708C296.395 191.463 296.346 191.219 296.25 190.993C296.154 190.767 296.014 190.562 295.838 190.391C295.277 190.086 294.636 189.958 294.001 190.023H290.254V193.449H294.056C294.679 193.494 295.301 193.347 295.838 193.026Z"
                                    fill="url(#paint17_linear_120_2172)" />
                                <path
                                    d="M296.214 196.682C295.591 196.316 294.869 196.152 294.148 196.213H290.254V200.438H294.194C294.905 200.486 295.613 200.306 296.214 199.924C296.446 199.731 296.626 199.485 296.74 199.206C296.854 198.927 296.897 198.625 296.867 198.326C296.892 198.02 296.847 197.712 296.734 197.427C296.621 197.142 296.443 196.887 296.214 196.682Z"
                                    fill="url(#paint18_linear_120_2172)" />
                                <path
                                    d="M292.622 177.468C289.012 177.466 285.482 178.535 282.48 180.539C279.477 182.544 277.137 185.394 275.754 188.729C274.372 192.064 274.01 195.734 274.714 199.275C275.417 202.816 277.156 206.069 279.708 208.621C282.261 211.174 285.514 212.912 289.055 213.616C292.596 214.32 296.266 213.958 299.601 212.576C302.936 211.193 305.786 208.853 307.79 205.85C309.795 202.848 310.864 199.318 310.862 195.708C310.862 190.87 308.94 186.231 305.52 182.81C302.099 179.389 297.46 177.468 292.622 177.468ZM298.794 202.082C297.531 202.998 295.988 203.446 294.431 203.349H287.084V188.893C287.082 188.671 287.125 188.45 287.21 188.245C287.294 188.039 287.419 187.853 287.576 187.695C287.733 187.538 287.92 187.414 288.126 187.329C288.331 187.245 288.551 187.202 288.774 187.203H294.688C296.035 187.111 297.374 187.473 298.491 188.232C298.925 188.61 299.269 189.082 299.496 189.611C299.724 190.141 299.829 190.715 299.804 191.29C299.826 192.01 299.648 192.722 299.29 193.348C298.93 193.897 298.425 194.336 297.83 194.615C298.565 194.922 299.201 195.428 299.666 196.075C300.099 196.777 300.31 197.593 300.273 198.417C300.313 199.098 300.201 199.78 299.946 200.412C299.69 201.044 299.296 201.611 298.794 202.073V202.082Z"
                                    fill="url(#paint19_linear_120_2172)" />
                            </g>
                        </g>
                        <path style="mix-blend-mode:multiply"
                            d="M191.909 458.686C187.234 453.873 190.687 442.953 199.615 434.283C208.542 425.613 219.563 422.481 224.238 427.284C228.913 432.088 225.45 443.026 216.523 451.696C207.596 460.367 196.574 463.489 191.909 458.686Z"
                            fill="url(#paint20_radial_120_2172)" />
                        <path style="mix-blend-mode:multiply"
                            d="M179.159 448.106C174.493 443.293 177.937 432.373 186.864 423.703C195.792 415.033 206.822 411.901 211.488 416.704C216.153 421.508 212.709 432.446 203.782 441.116C194.855 449.787 183.834 452.909 179.159 448.106Z"
                            fill="url(#paint21_radial_120_2172)" />
                        <path style="mix-blend-mode:multiply"
                            d="M181.096 458.685C176.43 453.873 179.875 442.952 188.802 434.282C197.729 425.612 208.76 422.499 213.444 427.284C218.128 432.069 214.665 443.026 205.738 451.696C196.811 460.366 185.771 463.489 181.096 458.685Z"
                            fill="url(#paint22_radial_120_2172)" />
                        <path style="mix-blend-mode:multiply"
                            d="M197.298 441.079C194.615 438.285 192.819 434.759 192.138 430.946C191.456 427.133 191.92 423.203 193.469 419.653C195.019 416.102 197.585 413.091 200.845 410.997C204.104 408.904 207.911 407.823 211.784 407.891C215.657 407.959 219.424 409.172 222.608 411.378C225.792 413.584 228.251 416.684 229.676 420.286C231.1 423.889 231.426 427.832 230.611 431.62C229.797 435.407 227.879 438.868 225.099 441.566C221.348 445.188 216.311 447.171 211.098 447.08C205.884 446.988 200.921 444.83 197.298 441.079Z"
                            fill="url(#paint23_radial_120_2172)" />
                        <path style="mix-blend-mode:multiply"
                            d="M195.995 454.58C191.32 449.768 194.773 438.847 203.7 430.177C212.628 421.507 223.649 418.375 228.324 423.179C232.999 427.982 229.536 438.921 220.609 447.591C211.682 456.261 200.679 459.384 195.995 454.58Z"
                            fill="url(#paint24_radial_120_2172)" />
                        <path style="mix-blend-mode:multiply"
                            d="M183.264 444C178.598 439.187 182.043 428.258 190.97 419.597C199.897 410.936 210.928 407.795 215.593 412.598C220.259 417.402 216.815 428.34 207.888 437.01C198.96 445.681 187.939 448.803 183.264 444Z"
                            fill="url(#paint25_radial_120_2172)" />
                        <path style="mix-blend-mode:multiply"
                            d="M185.204 454.58C180.538 449.768 183.982 438.847 192.909 430.177C201.837 421.507 212.858 418.375 217.533 423.179C222.208 427.982 218.754 438.921 209.827 447.591C200.9 456.261 189.878 459.384 185.204 454.58Z"
                            fill="url(#paint26_radial_120_2172)" />
                        <path style="mix-blend-mode:multiply"
                            d="M201.404 436.974C198.724 434.181 196.931 430.656 196.251 426.845C195.572 423.034 196.036 419.107 197.585 415.56C199.135 412.012 201.7 409.003 204.958 406.911C208.215 404.82 212.019 403.74 215.89 403.808C219.76 403.875 223.524 405.088 226.706 407.292C229.889 409.496 232.347 412.594 233.771 416.193C235.196 419.793 235.522 423.734 234.71 427.518C233.897 431.303 231.982 434.763 229.205 437.461C225.454 441.082 220.418 443.065 215.204 442.974C209.99 442.883 205.027 440.724 201.404 436.974Z"
                            fill="url(#paint27_radial_120_2172)" />
                        <path
                            d="M236.406 421.471C236.406 425.365 235.251 429.172 233.088 432.411C230.924 435.649 227.849 438.173 224.25 439.663C220.652 441.154 216.693 441.544 212.873 440.784C209.054 440.024 205.545 438.149 202.791 435.395C200.037 432.641 198.162 429.132 197.402 425.312C196.642 421.493 197.032 417.533 198.522 413.935C200.013 410.337 202.537 407.262 205.775 405.098C209.013 402.934 212.82 401.779 216.715 401.779C219.301 401.778 221.862 402.287 224.252 403.276C226.641 404.265 228.813 405.715 230.641 407.544C232.47 409.373 233.921 411.544 234.91 413.934C235.899 416.323 236.407 418.884 236.406 421.471Z"
                            fill="white" />
                        <path
                            d="M236.406 421.865C236.408 425.76 235.255 429.568 233.092 432.808C230.929 436.047 227.855 438.573 224.257 440.064C220.659 441.556 216.699 441.948 212.879 441.189C209.058 440.43 205.549 438.555 202.794 435.802C200.039 433.048 198.163 429.54 197.402 425.72C196.642 421.9 197.031 417.94 198.521 414.341C200.012 410.743 202.535 407.667 205.774 405.502C209.012 403.338 212.82 402.183 216.715 402.183C221.936 402.183 226.943 404.257 230.635 407.947C234.328 411.638 236.404 416.645 236.406 421.865Z"
                            fill="url(#paint28_linear_120_2172)" />
                        <path
                            d="M216.705 405.048C213.379 405.048 210.128 406.035 207.363 407.883C204.597 409.73 202.442 412.357 201.169 415.43C199.896 418.503 199.563 421.884 200.212 425.146C200.861 428.408 202.462 431.404 204.814 433.756C207.166 436.108 210.162 437.71 213.425 438.359C216.687 439.008 220.068 438.675 223.141 437.402C226.214 436.129 228.84 433.973 230.688 431.208C232.536 428.442 233.522 425.191 233.522 421.865C233.522 419.657 233.087 417.47 232.242 415.43C231.397 413.389 230.158 411.536 228.597 409.974C227.035 408.412 225.181 407.174 223.141 406.329C221.101 405.483 218.914 405.048 216.705 405.048ZM213.95 425.521C214.3 425.971 214.755 426.329 215.276 426.563C215.796 426.796 216.366 426.899 216.935 426.861C217.757 426.94 218.577 426.697 219.222 426.183C219.868 425.669 220.289 424.924 220.398 424.106H223.382C223.354 424.882 223.167 425.643 222.832 426.343C222.497 427.043 222.022 427.666 221.435 428.175C220.092 429.182 218.438 429.689 216.76 429.608C215.804 429.673 214.845 429.525 213.953 429.172C213.062 428.819 212.26 428.271 211.608 427.569C210.432 426.274 209.835 424.354 209.835 421.819C209.835 419.284 210.442 417.273 211.672 415.969C212.371 415.266 213.212 414.722 214.139 414.371C215.066 414.021 216.057 413.874 217.045 413.939C218.698 413.843 220.329 414.349 221.637 415.363C222.19 415.856 222.638 416.456 222.954 417.127C223.269 417.798 223.446 418.525 223.474 419.266H221.637C221.326 419.283 221.018 419.205 220.753 419.04C220.488 418.876 220.281 418.634 220.159 418.348C219.968 417.977 219.72 417.639 219.424 417.346C218.752 416.889 217.949 416.663 217.137 416.703C216.559 416.669 215.981 416.768 215.448 416.992C214.914 417.217 214.439 417.561 214.06 417.999C213.29 419.114 212.924 420.458 213.022 421.81C212.916 423.122 213.259 424.43 213.996 425.521H213.95Z"
                            fill="#8CC63F" />
                        <path style="mix-blend-mode:multiply"
                            d="M306.088 606.059C302.414 602.266 305.123 593.66 312.159 586.836C319.194 580.012 327.873 577.541 331.547 581.325C335.221 585.109 332.511 593.724 325.476 600.548C318.441 607.372 309.762 609.861 306.088 606.059Z"
                            fill="url(#paint29_radial_120_2172)" />
                        <path style="mix-blend-mode:multiply"
                            d="M296.049 597.729C292.375 593.936 295.084 585.33 302.12 578.506C309.155 571.682 317.834 569.211 321.508 572.995C325.182 576.779 322.426 585.385 315.437 592.218C308.448 599.051 299.723 601.513 296.049 597.729Z"
                            fill="url(#paint30_radial_120_2172)" />
                        <path style="mix-blend-mode:multiply"
                            d="M297.574 606.059C293.9 602.266 296.61 593.66 303.645 586.836C310.68 580.012 319.36 577.541 323.033 581.325C326.707 585.109 323.998 593.724 316.972 600.548C309.946 607.372 301.248 609.861 297.574 606.059Z"
                            fill="url(#paint31_radial_120_2172)" />
                        <path style="mix-blend-mode:multiply"
                            d="M310.331 592.19C308.218 589.989 306.804 587.211 306.268 584.207C305.732 581.203 306.097 578.107 307.318 575.31C308.54 572.513 310.562 570.141 313.13 568.492C315.698 566.844 318.696 565.993 321.748 566.046C324.799 566.1 327.766 567.056 330.274 568.794C332.782 570.532 334.72 572.974 335.842 575.812C336.964 578.65 337.22 581.757 336.578 584.74C335.937 587.724 334.426 590.45 332.236 592.576C330.774 593.991 329.046 595.104 327.153 595.85C325.26 596.597 323.238 596.962 321.204 596.927C319.169 596.891 317.162 596.454 315.296 595.641C313.43 594.829 311.743 593.656 310.331 592.19Z"
                            fill="url(#paint32_radial_120_2172)" />
                        <path style="mix-blend-mode:multiply"
                            d="M309.32 602.826C305.646 599.033 308.356 590.427 315.391 583.603C322.426 576.779 331.106 574.308 334.779 578.092C338.453 581.876 335.744 590.491 328.709 597.315C321.673 604.14 312.994 606.61 309.32 602.826Z"
                            fill="url(#paint33_radial_120_2172)" />
                        <path style="mix-blend-mode:multiply"
                            d="M299.282 594.486C295.608 590.703 298.364 582.097 305.353 575.273C312.342 568.449 321.068 565.969 324.741 569.762C328.415 573.555 325.706 582.152 318.671 588.985C311.635 595.818 302.956 598.28 299.282 594.486Z"
                            fill="url(#paint34_radial_120_2172)" />
                        <path style="mix-blend-mode:multiply"
                            d="M300.807 602.826C297.133 599.033 299.842 590.427 306.877 583.603C313.913 576.779 322.592 574.308 326.275 578.092C329.958 581.876 327.193 590.491 320.204 597.315C313.215 604.14 304.48 606.61 300.807 602.826Z"
                            fill="url(#paint35_radial_120_2172)" />
                        <path style="mix-blend-mode:multiply"
                            d="M313.556 588.958C311.443 586.756 310.028 583.978 309.492 580.974C308.956 577.97 309.322 574.874 310.543 572.077C311.764 569.281 313.786 566.908 316.354 565.26C318.922 563.611 321.921 562.76 324.972 562.813C328.023 562.867 330.99 563.823 333.499 565.561C336.007 567.3 337.944 569.742 339.066 572.58C340.188 575.417 340.445 578.524 339.803 581.508C339.161 584.491 337.65 587.218 335.461 589.343C333.998 590.758 332.271 591.871 330.378 592.617C328.485 593.364 326.463 593.729 324.428 593.694C322.394 593.658 320.386 593.221 318.52 592.408C316.655 591.596 314.968 590.423 313.556 588.958Z"
                            fill="url(#paint36_radial_120_2172)" />
                        <path
                            d="M341.109 576.742C341.109 579.811 340.199 582.81 338.494 585.361C336.789 587.913 334.366 589.901 331.531 591.075C328.696 592.249 325.576 592.555 322.567 591.956C319.558 591.357 316.794 589.878 314.624 587.708C312.455 585.538 310.979 582.773 310.381 579.763C309.784 576.753 310.092 573.634 311.268 570.8C312.443 567.965 314.433 565.543 316.985 563.84C319.537 562.136 322.537 561.228 325.606 561.23C329.718 561.232 333.662 562.868 336.569 565.776C339.476 568.685 341.109 572.63 341.109 576.742Z"
                            fill="white" />
                        <path
                            d="M341.109 577.064C341.109 580.132 340.199 583.132 338.494 585.683C336.789 588.234 334.366 590.223 331.531 591.396C328.696 592.57 325.576 592.877 322.567 592.278C319.558 591.678 316.794 590.2 314.624 588.03C312.455 585.859 310.979 583.094 310.381 580.085C309.784 577.075 310.092 573.955 311.268 571.121C312.443 568.287 314.433 565.865 316.985 564.161C319.537 562.458 322.537 561.55 325.606 561.551C327.643 561.551 329.659 561.953 331.541 562.732C333.422 563.512 335.132 564.655 336.572 566.095C338.011 567.536 339.153 569.246 339.932 571.128C340.71 573.01 341.11 575.027 341.109 577.064Z"
                            fill="url(#paint37_linear_120_2172)" />
                        <path
                            d="M326.24 572.922H323.99V580.471H325.928C326.38 580.506 326.835 580.441 327.26 580.283C327.685 580.124 328.07 579.875 328.39 579.553C328.97 578.716 329.233 577.7 329.134 576.687C329.215 575.668 328.963 574.649 328.417 573.785C328.15 573.477 327.813 573.237 327.434 573.087C327.056 572.937 326.646 572.88 326.24 572.922Z"
                            fill="#77C4D3" />
                        <path
                            d="M325.626 563.811C323.004 563.809 320.441 564.585 318.26 566.04C316.079 567.495 314.379 569.564 313.375 571.986C312.37 574.407 312.106 577.072 312.617 579.644C313.127 582.215 314.389 584.578 316.242 586.432C318.095 588.286 320.456 589.55 323.027 590.062C325.599 590.574 328.264 590.312 330.686 589.309C333.108 588.306 335.179 586.607 336.635 584.428C338.092 582.248 338.87 579.685 338.87 577.064C338.87 573.55 337.475 570.181 334.991 567.696C332.508 565.21 329.139 563.813 325.626 563.811ZM331.136 579.571C330.838 580.342 330.344 581.023 329.703 581.546C329.226 581.923 328.68 582.203 328.096 582.372C327.28 582.559 326.444 582.639 325.607 582.611H321.649V572.104C321.646 571.942 321.676 571.781 321.738 571.631C321.8 571.481 321.891 571.345 322.007 571.232C322.121 571.116 322.257 571.025 322.407 570.964C322.557 570.902 322.717 570.871 322.879 570.873H326.259C326.993 570.817 327.73 570.915 328.423 571.162C329.116 571.409 329.75 571.799 330.282 572.306C331.253 573.573 331.727 575.151 331.614 576.742C331.617 577.701 331.449 578.653 331.118 579.553L331.136 579.571Z"
                            fill="#77C4D3" />

                        <g style="mix-blend-mode:multiply" opacity="0.3">
                            <path d="M298.18 192.448C298.222 192.41 298.262 192.37 298.299 192.328L298.18 192.448Z"
                                fill="#662D91" />
                        </g>
                        <g class="circleA">
                            <path id="circleA"
                                d="M664.4 369.918C664.4 476.155 578.277 562.277 472.032 562.277C365.787 562.277 279.637 476.155 279.637 369.918C279.637 263.682 365.768 177.551 472.004 177.551C578.241 177.551 664.4 263.673 664.4 369.918Z"
                                fill="url(#paint40_linear_120_2172)" />
                            <path
                                d="M615.838 349.042C620.807 383.286 613.395 418.179 594.934 447.446C576.474 476.713 548.176 498.432 515.131 508.697C482.087 518.962 446.464 517.1 414.67 503.445C382.875 489.79 356.997 465.238 341.689 434.206C326.38 403.174 322.647 367.698 331.16 334.159C339.674 300.621 359.874 271.22 388.13 251.246C416.385 231.271 450.84 222.034 485.298 225.196C519.755 228.358 551.954 243.711 576.103 268.494L501.833 340.862C494.916 333.764 485.693 329.366 475.822 328.46C465.952 327.555 456.083 330.2 447.989 335.922C439.896 341.643 434.109 350.065 431.671 359.672C429.232 369.279 430.301 379.441 434.686 388.33C439.071 397.219 446.484 404.252 455.591 408.163C464.699 412.074 474.903 412.608 484.368 409.667C493.834 406.727 501.939 400.506 507.227 392.122C512.515 383.739 514.638 373.744 513.215 363.935L615.838 349.042Z"
                                fill="#D9D9D9" />
                            <path
                                d="M615.838 349.042C620.807 383.286 613.395 418.179 594.934 447.446C576.474 476.713 548.176 498.432 515.131 508.697C482.087 518.962 446.464 517.1 414.67 503.445C382.875 489.79 356.997 465.238 341.689 434.206C326.38 403.174 322.647 367.698 331.16 334.159C339.674 300.621 359.874 271.22 388.13 251.246C416.385 231.271 450.84 222.034 485.298 225.196C519.755 228.358 551.954 243.711 576.103 268.494L501.833 340.862C494.916 333.764 485.693 329.366 475.822 328.46C465.952 327.555 456.083 330.2 447.989 335.922C439.896 341.643 434.109 350.065 431.671 359.672C429.232 369.279 430.301 379.441 434.686 388.33C439.071 397.219 446.484 404.252 455.591 408.163C464.699 412.074 474.903 412.608 484.368 409.667C493.834 406.727 501.939 400.506 507.227 392.122C512.515 383.739 514.638 373.744 513.215 363.935L615.838 349.042Z"
                                fill="url(#paint41_linear_120_2172)" />
                            <!-- <path style="mix-blend-mode:multiply"
                                d="M440.834 418.752C434.588 412.323 439.199 397.701 451.148 386.101C463.097 374.501 477.838 370.313 484.083 376.742C490.329 383.171 485.718 397.793 473.769 409.393C461.82 420.993 447.079 425.181 440.834 418.752Z"
                                fill="url(#paint42_radial_120_2172)" />
                            <path style="mix-blend-mode:multiply"
                                d="M423.768 404.59C417.522 398.161 422.142 383.539 434.082 371.948C446.021 360.357 460.772 356.16 467.017 362.589C473.262 369.018 468.652 383.64 456.712 395.24C444.772 406.84 430.031 411.028 423.768 404.59Z"
                                fill="url(#paint43_radial_120_2172)" />
                            <path style="mix-blend-mode:multiply"
                                d="M426.375 418.752C420.121 412.323 424.74 397.701 436.68 386.101C448.62 374.501 463.37 370.313 469.625 376.742C475.879 383.171 471.25 397.793 459.311 409.393C447.371 420.993 432.621 425.181 426.375 418.752Z"
                                fill="url(#paint44_radial_120_2172)" />
                            <path style="mix-blend-mode:multiply"
                                d="M448.041 395.194C444.455 391.455 442.057 386.737 441.148 381.636C440.24 376.536 440.863 371.28 442.938 366.533C445.012 361.786 448.447 357.759 452.807 354.961C457.168 352.163 462.259 350.719 467.439 350.811C472.619 350.903 477.656 352.527 481.914 355.478C486.173 358.43 489.462 362.576 491.366 367.394C493.271 372.212 493.707 377.486 492.618 382.551C491.529 387.616 488.964 392.246 485.247 395.855C482.762 398.256 479.827 400.143 476.611 401.409C473.396 402.675 469.963 403.295 466.507 403.234C463.052 403.172 459.643 402.431 456.474 401.051C453.306 399.672 450.44 397.681 448.041 395.194Z"
                                fill="url(#paint45_radial_120_2172)" />
                            <path style="mix-blend-mode:multiply"
                                d="M446.326 413.26C440.081 406.831 444.691 392.209 456.64 380.609C468.589 369.009 483.33 364.821 489.575 371.25C495.821 377.679 491.201 392.301 479.261 403.901C467.321 415.501 452.571 419.689 446.326 413.26Z"
                                fill="url(#paint46_radial_120_2172)" />
                            <path style="mix-blend-mode:multiply"
                                d="M429.279 399.097C423.034 392.668 427.654 378.046 439.593 366.456C451.533 354.865 466.283 350.667 472.538 357.097C478.792 363.526 474.164 378.147 462.224 389.747C450.284 401.347 435.515 405.535 429.279 399.097Z"
                                fill="url(#paint47_radial_120_2172)" />
                            <path style="mix-blend-mode:multiply"
                                d="M431.87 413.259C425.606 406.821 430.198 392.19 442.138 380.609C454.078 369.027 468.828 364.821 475.082 371.25C481.337 377.679 476.708 392.301 464.768 403.9C452.829 415.5 438.115 419.688 431.87 413.259Z"
                                fill="url(#paint48_radial_120_2172)" />-->
                            <path style="mix-blend-mode:multiply"
                                d="M453.533 389.702C449.947 385.962 447.549 381.245 446.641 376.144C445.732 371.043 446.355 365.788 448.43 361.041C450.505 356.293 453.939 352.267 458.299 349.469C462.66 346.671 467.751 345.227 472.931 345.319C478.111 345.411 483.148 347.035 487.407 349.986C491.665 352.937 494.954 357.083 496.859 361.901C498.763 366.719 499.199 371.994 498.11 377.059C497.021 382.124 494.456 386.753 490.74 390.363C488.254 392.763 485.319 394.651 482.104 395.917C478.888 397.183 475.455 397.803 472 397.741C468.544 397.68 465.135 396.938 461.967 395.559C458.798 394.179 455.932 392.189 453.533 389.702Z"
                                fill="url(#paint49_radial_120_2172)" />
                            <path
                                d="M500.348 368.954C500.344 374.163 498.796 379.254 495.9 383.583C493.003 387.912 488.888 391.286 484.074 393.277C479.261 395.267 473.965 395.786 468.857 394.768C463.748 393.75 459.057 391.239 455.375 387.555C451.693 383.87 449.186 379.177 448.171 374.068C447.156 368.958 447.679 363.663 449.673 358.851C451.667 354.039 455.043 349.926 459.375 347.032C463.706 344.139 468.798 342.594 474.007 342.594C477.468 342.594 480.894 343.276 484.091 344.601C487.288 345.926 490.193 347.868 492.639 350.316C495.085 352.764 497.025 355.67 498.348 358.868C499.671 362.066 500.35 365.493 500.348 368.954Z"
                                fill="white" />
                            <path id="centerA"
                                d="M500.348 369.496C500.348 374.706 498.803 379.798 495.909 384.13C493.014 388.462 488.9 391.838 484.087 393.832C479.274 395.825 473.978 396.347 468.868 395.331C463.758 394.314 459.065 391.806 455.381 388.122C451.697 384.438 449.188 379.744 448.172 374.635C447.156 369.525 447.677 364.229 449.671 359.416C451.665 354.602 455.041 350.489 459.373 347.594C463.704 344.7 468.797 343.155 474.007 343.155C480.993 343.155 487.693 345.93 492.633 350.87C497.573 355.81 500.348 362.51 500.348 369.496Z"
                                fill="url(#paint50_linear_120_2172)" />
                            <path d="M471.195 370.726H476.761L473.978 362.267L471.195 370.726Z"
                                fill="url(#paint51_linear_120_2172)" />
                            <path
                                d="M474.008 346.994C469.557 346.994 465.207 348.314 461.506 350.786C457.806 353.259 454.922 356.773 453.219 360.885C451.516 364.996 451.07 369.521 451.938 373.886C452.806 378.251 454.95 382.26 458.096 385.407C461.243 388.554 465.253 390.697 469.618 391.565C473.983 392.434 478.507 391.988 482.619 390.285C486.73 388.582 490.245 385.698 492.717 381.997C495.19 378.297 496.51 373.946 496.51 369.496C496.511 366.541 495.93 363.614 494.799 360.883C493.669 358.153 492.011 355.672 489.922 353.582C487.832 351.492 485.351 349.835 482.62 348.704C479.89 347.574 476.963 346.993 474.008 346.994ZM479.197 378.221L477.865 374.106H470.104L468.828 378.221H464.483L471.087 359.632C471.221 359.223 471.486 358.871 471.842 358.63C472.198 358.389 472.624 358.273 473.052 358.3H476.295L483.541 378.221H479.197Z"
                                fill="url(#paint52_linear_120_2172)" />
                        </g>
                        <path
                            d="M381.437 64.4444C361.638 51.0419 339.056 42.3057 315.392 38.8933C315.392 39.2974 315.319 39.7107 315.264 40.1148C339.904 43.7282 363.343 53.11 383.671 67.4965C404 81.8829 420.643 100.867 432.246 122.903C432.696 122.903 433.164 122.848 433.614 122.848C421.66 100.011 404.369 80.3976 383.21 65.6751"
                            fill="url(#paint53_linear_120_2172)" />
                        <path
                            d="M381.437 64.4444C361.638 51.0419 339.056 42.3057 315.392 38.8933C315.392 39.2974 315.319 39.7107 315.264 40.1148C339.904 43.7282 363.343 53.11 383.671 67.4965C404 81.8829 420.643 100.867 432.246 122.903C432.696 122.903 433.164 122.848 433.614 122.848C421.66 100.011 404.369 80.3976 383.21 65.6751"
                            fill="url(#paint54_linear_120_2172)" />
                        <path
                            d="M418.423 70.6806C410.982 62.951 402.803 55.9682 394.001 49.8319L392.165 48.5737C383.264 42.5528 373.789 37.4303 363.877 33.2816C363.426 33.5663 362.958 33.8327 362.508 34.0807C383.395 42.7029 402.252 55.5912 417.872 71.9205C418.055 71.5072 418.257 71.0847 418.423 70.6806Z"
                            fill="url(#paint55_linear_120_2172)" />
                        <path
                            d="M564.29 173.307C541.245 162.342 516.441 155.545 491.026 153.23C491.228 153.671 491.43 154.149 491.604 154.571C539.902 159.143 585.253 179.85 620.342 213.351C621.004 213.351 621.656 213.406 622.308 213.48C605.94 197.685 587.208 184.54 566.788 174.52"
                            fill="url(#paint56_linear_120_2172)" />
                        <path
                            d="M554.499 147.416C535.449 140.351 515.548 135.839 495.314 133.998C495.535 134.466 495.746 134.916 495.939 135.422C515.927 137.304 535.581 141.803 554.398 148.803C554.416 148.353 554.444 147.885 554.499 147.416Z"
                            fill="url(#paint57_linear_120_2172)" />
                        <path
                            d="M591.164 164.784C590.842 165.133 590.512 165.455 590.172 165.776C605.711 174.848 620.142 185.697 633.173 198.105C633.873 198.114 634.572 198.16 635.267 198.243C621.944 185.382 607.139 174.15 591.164 164.784Z"
                            fill="url(#paint58_linear_120_2172)" />
                        <path
                            d="M414.309 638.994C419.133 632.137 423.14 624.739 426.248 616.952C425.844 616.832 425.44 616.722 425.036 616.575C421.968 624.214 418.026 631.472 413.289 638.205C413.65 638.468 413.99 638.731 414.309 638.994Z"
                            fill="#77C4D3" />
                        <path
                            d="M382.438 667.457C374.327 672.537 365.564 676.495 356.391 679.222C356.583 679.599 356.776 679.975 356.951 680.361C366.205 677.583 375.041 673.567 383.218 668.421C382.943 668.127 382.686 667.797 382.438 667.457Z"
                            fill="#77C4D3" />
                        <path
                            d="M426.184 647.334C431.666 639.565 436.219 631.18 439.75 622.352C439.291 622.224 438.831 622.095 438.381 621.93C434.902 630.591 430.43 638.821 425.055 646.452C425.44 646.728 425.817 647.031 426.184 647.334Z"
                            fill="#77C4D3" />
                        <path
                            d="M390.044 679.608C380.846 685.363 370.914 689.848 360.516 692.944C360.736 693.366 360.947 693.798 361.14 694.239C371.632 691.098 381.651 686.553 390.925 680.729C390.622 680.37 390.328 679.994 390.044 679.608Z"
                            fill="#77C4D3" />
                        <path
                            d="M439.574 656.702C445.797 647.908 450.973 638.418 454.995 628.423C454.471 628.276 453.948 628.129 453.443 627.946C449.491 637.779 444.412 647.121 438.307 655.784C438.738 656.05 439.161 656.39 439.574 656.702Z"
                            fill="#77C4D3" />
                        <path
                            d="M398.63 693.311C388.205 699.831 376.948 704.913 365.162 708.419C365.41 708.906 365.658 709.384 365.869 709.889C377.759 706.332 389.113 701.181 399.622 694.578C399.285 694.168 398.955 693.746 398.63 693.311Z"
                            fill="#77C4D3" />
                        <path
                            d="M143.386 503.322C154.276 513.107 166.902 520.767 180.611 525.907C180.739 525.503 180.859 525.089 181.015 524.685C167.095 519.464 154.311 511.612 143.359 501.559L143.028 501.274L142.697 500.934C129.235 488.448 119.22 472.701 113.619 455.214C113.215 455.407 112.811 455.6 112.389 455.774C118.112 473.512 128.321 489.47 142.027 502.101L143.386 503.322Z"
                            fill="#8CC63F" />
                        <path
                            d="M132.998 514.775C145.422 525.946 159.83 534.691 175.476 540.555C175.614 540.087 175.761 539.637 175.926 539.159C160.059 533.194 145.485 524.236 132.998 512.773L132.621 512.451L132.236 512.047C116.875 497.804 105.449 479.839 99.0615 459.889C98.5931 460.109 98.143 460.33 97.6562 460.522C104.182 480.776 115.831 498.999 131.473 513.425L132.998 514.775Z"
                            fill="#8CC63F" />
                        <path
                            d="M122.161 526.696C136.19 539.306 152.458 549.175 170.122 555.793C170.279 555.269 170.435 554.736 170.628 554.222C152.714 547.494 136.26 537.385 122.161 524.446L121.739 524.079L121.307 523.638C103.972 507.552 91.0756 487.269 83.8623 464.747C83.3296 464.995 82.8061 465.243 82.2734 465.464C89.6406 488.322 102.793 508.887 120.453 525.162L122.161 526.696Z"
                            fill="#8CC63F" />
                        <path
                            d="M537.719 319.426C540.869 319.426 543.334 320.391 545.112 322.319C546.891 324.227 547.78 326.981 547.78 330.581C547.78 333.131 547.298 335.317 546.334 337.139C545.391 338.96 544.051 340.342 542.316 341.285C540.58 342.228 538.576 342.7 536.304 342.7C535.104 342.7 533.958 342.571 532.865 342.314C531.772 342.035 530.84 341.65 530.068 341.157L531.997 337.331C533.09 338.081 534.494 338.457 536.208 338.457C538.115 338.457 539.626 337.899 540.74 336.785C541.855 335.649 542.455 334.02 542.541 331.899C541.19 333.249 539.326 333.924 536.947 333.924C535.511 333.924 534.204 333.635 533.026 333.056C531.847 332.477 530.915 331.663 530.229 330.613C529.543 329.541 529.2 328.309 529.2 326.916C529.2 325.416 529.575 324.098 530.325 322.962C531.075 321.827 532.093 320.959 533.379 320.359C534.686 319.737 536.133 319.426 537.719 319.426ZM538.105 330.034C539.24 330.034 540.162 329.724 540.869 329.102C541.598 328.459 541.962 327.645 541.962 326.659C541.962 325.673 541.608 324.87 540.901 324.248C540.215 323.627 539.262 323.316 538.04 323.316C536.926 323.316 536.015 323.616 535.308 324.216C534.622 324.816 534.279 325.63 534.279 326.659C534.279 327.688 534.622 328.513 535.308 329.134C536.015 329.734 536.947 330.034 538.105 330.034ZM559.922 342.7C558.058 342.7 556.397 342.239 554.94 341.317C553.482 340.396 552.336 339.067 551.5 337.331C550.686 335.574 550.279 333.485 550.279 331.063C550.279 328.641 550.686 326.563 551.5 324.827C552.336 323.07 553.482 321.73 554.94 320.809C556.397 319.887 558.058 319.426 559.922 319.426C561.787 319.426 563.448 319.887 564.905 320.809C566.362 321.73 567.498 323.07 568.312 324.827C569.148 326.563 569.566 328.641 569.566 331.063C569.566 333.485 569.148 335.574 568.312 337.331C567.498 339.067 566.362 340.396 564.905 341.317C563.448 342.239 561.787 342.7 559.922 342.7ZM559.922 338.296C561.294 338.296 562.365 337.706 563.137 336.528C563.93 335.349 564.326 333.528 564.326 331.063C564.326 328.599 563.93 326.777 563.137 325.598C562.365 324.42 561.294 323.83 559.922 323.83C558.572 323.83 557.501 324.42 556.708 325.598C555.936 326.777 555.55 328.599 555.55 331.063C555.55 333.528 555.936 335.349 556.708 336.528C557.501 337.706 558.572 338.296 559.922 338.296ZM577.304 331.963C575.654 331.963 574.303 331.406 573.253 330.292C572.225 329.156 571.71 327.645 571.71 325.759C571.71 323.873 572.225 322.373 573.253 321.259C574.303 320.123 575.654 319.555 577.304 319.555C578.954 319.555 580.293 320.123 581.322 321.259C582.351 322.373 582.865 323.873 582.865 325.759C582.865 327.645 582.351 329.156 581.322 330.292C580.293 331.406 578.954 331.963 577.304 331.963ZM590.708 319.812H594.534L579.168 342.314H575.343L590.708 319.812ZM577.304 329.327C578.032 329.327 578.6 329.027 579.007 328.427C579.436 327.827 579.65 326.938 579.65 325.759C579.65 324.58 579.436 323.691 579.007 323.091C578.6 322.491 578.032 322.191 577.304 322.191C576.596 322.191 576.029 322.502 575.6 323.123C575.171 323.723 574.957 324.602 574.957 325.759C574.957 326.916 575.171 327.806 575.6 328.427C576.029 329.027 576.596 329.327 577.304 329.327ZM592.573 342.571C591.501 342.571 590.537 342.325 589.68 341.832C588.844 341.317 588.19 340.589 587.719 339.646C587.247 338.703 587.012 337.61 587.012 336.367C587.012 335.124 587.247 334.031 587.719 333.088C588.19 332.145 588.844 331.427 589.68 330.934C590.537 330.42 591.501 330.163 592.573 330.163C594.223 330.163 595.562 330.731 596.591 331.867C597.641 332.981 598.166 334.481 598.166 336.367C598.166 338.253 597.641 339.764 596.591 340.9C595.562 342.014 594.223 342.571 592.573 342.571ZM592.573 339.935C593.301 339.935 593.869 339.635 594.276 339.035C594.705 338.414 594.919 337.524 594.919 336.367C594.919 335.21 594.705 334.331 594.276 333.731C593.869 333.11 593.301 332.799 592.573 332.799C591.866 332.799 591.298 333.099 590.869 333.699C590.44 334.299 590.226 335.188 590.226 336.367C590.226 337.546 590.44 338.435 590.869 339.035C591.298 339.635 591.866 339.935 592.573 339.935Z"
                            fill="#666666" />
                        <path
                            d="M257.033 232.747V252.034H252.569V236.329H248.712V232.747H257.033ZM268.649 252.365C267.051 252.365 265.628 251.97 264.379 251.18C263.13 250.39 262.147 249.251 261.43 247.763C260.732 246.257 260.383 244.466 260.383 242.39C260.383 240.315 260.732 238.533 261.43 237.045C262.147 235.539 263.13 234.391 264.379 233.601C265.628 232.811 267.051 232.416 268.649 232.416C270.247 232.416 271.671 232.811 272.92 233.601C274.169 234.391 275.143 235.539 275.841 237.045C276.557 238.533 276.915 240.315 276.915 242.39C276.915 244.466 276.557 246.257 275.841 247.763C275.143 249.251 274.169 250.39 272.92 251.18C271.671 251.97 270.247 252.365 268.649 252.365ZM268.649 248.59C269.825 248.59 270.743 248.085 271.405 247.074C272.084 246.064 272.424 244.503 272.424 242.39C272.424 240.278 272.084 238.717 271.405 237.706C270.743 236.696 269.825 236.191 268.649 236.191C267.492 236.191 266.574 236.696 265.894 237.706C265.233 238.717 264.902 240.278 264.902 242.39C264.902 244.503 265.233 246.064 265.894 247.074C266.574 248.085 267.492 248.59 268.649 248.59ZM283.548 243.162C282.133 243.162 280.976 242.684 280.076 241.729C279.194 240.756 278.753 239.461 278.753 237.844C278.753 236.228 279.194 234.942 280.076 233.987C280.976 233.013 282.133 232.526 283.548 232.526C284.962 232.526 286.11 233.013 286.992 233.987C287.874 234.942 288.314 236.228 288.314 237.844C288.314 239.461 287.874 240.756 286.992 241.729C286.11 242.684 284.962 243.162 283.548 243.162ZM295.037 232.747H298.316L285.146 252.034H281.867L295.037 232.747ZM283.548 240.903C284.172 240.903 284.659 240.645 285.008 240.131C285.375 239.617 285.559 238.854 285.559 237.844C285.559 236.834 285.375 236.072 285.008 235.557C284.659 235.043 284.172 234.786 283.548 234.786C282.942 234.786 282.455 235.052 282.087 235.585C281.72 236.099 281.536 236.852 281.536 237.844C281.536 238.836 281.72 239.598 282.087 240.131C282.455 240.645 282.942 240.903 283.548 240.903ZM296.636 252.254C295.717 252.254 294.891 252.043 294.156 251.621C293.439 251.18 292.879 250.555 292.475 249.747C292.071 248.939 291.869 248.002 291.869 246.937C291.869 245.871 292.071 244.934 292.475 244.126C292.879 243.318 293.439 242.703 294.156 242.28C294.891 241.839 295.717 241.619 296.636 241.619C298.05 241.619 299.198 242.106 300.08 243.079C300.98 244.034 301.43 245.32 301.43 246.937C301.43 248.553 300.98 249.848 300.08 250.822C299.198 251.777 298.05 252.254 296.636 252.254ZM296.636 249.995C297.26 249.995 297.747 249.738 298.096 249.224C298.463 248.691 298.647 247.929 298.647 246.937C298.647 245.945 298.463 245.192 298.096 244.677C297.747 244.145 297.26 243.878 296.636 243.878C296.029 243.878 295.543 244.135 295.175 244.65C294.808 245.164 294.624 245.926 294.624 246.937C294.624 247.947 294.808 248.709 295.175 249.224C295.543 249.738 296.029 249.995 296.636 249.995Z"
                            fill="#666666" />
                        <path
                            d="M53.3647 172.057H48.8847V169.417H61.0847V172.057H56.6047V183.417H53.3647V172.057ZM72.0542 178.077C72.0542 178.117 72.0342 178.397 71.9942 178.917H63.8542C64.0009 179.583 64.3476 180.11 64.8942 180.497C65.4409 180.883 66.1209 181.077 66.9342 181.077C67.4942 181.077 67.9876 180.997 68.4142 180.837C68.8542 180.663 69.2609 180.397 69.6342 180.037L71.2942 181.837C70.2809 182.997 68.8009 183.577 66.8542 183.577C65.6409 183.577 64.5676 183.343 63.6342 182.877C62.7009 182.397 61.9809 181.737 61.4742 180.897C60.9676 180.057 60.7142 179.103 60.7142 178.037C60.7142 176.983 60.9609 176.037 61.4542 175.197C61.9609 174.343 62.6476 173.683 63.5142 173.217C64.3942 172.737 65.3742 172.497 66.4542 172.497C67.5076 172.497 68.4609 172.723 69.3142 173.177C70.1676 173.63 70.8342 174.283 71.3142 175.137C71.8076 175.977 72.0542 176.957 72.0542 178.077ZM66.4742 174.857C65.7676 174.857 65.1742 175.057 64.6942 175.457C64.2142 175.857 63.9209 176.403 63.8142 177.097H69.1142C69.0076 176.417 68.7142 175.877 68.2342 175.477C67.7542 175.063 67.1676 174.857 66.4742 174.857ZM78.1784 172.497C79.8451 172.497 81.1251 172.897 82.0184 173.697C82.9118 174.483 83.3584 175.677 83.3584 177.277V183.417H80.4384V182.077C79.8518 183.077 78.7584 183.577 77.1584 183.577C76.3318 183.577 75.6118 183.437 74.9984 183.157C74.3984 182.877 73.9384 182.49 73.6184 181.997C73.2984 181.503 73.1384 180.943 73.1384 180.317C73.1384 179.317 73.5118 178.53 74.2584 177.957C75.0184 177.383 76.1851 177.097 77.7584 177.097H80.2384C80.2384 176.417 80.0318 175.897 79.6184 175.537C79.2051 175.163 78.5851 174.977 77.7584 174.977C77.1851 174.977 76.6184 175.07 76.0584 175.257C75.5118 175.43 75.0451 175.67 74.6584 175.977L73.5384 173.797C74.1251 173.383 74.8251 173.063 75.6384 172.837C76.4651 172.61 77.3118 172.497 78.1784 172.497ZM77.9384 181.477C78.4718 181.477 78.9451 181.357 79.3584 181.117C79.7718 180.863 80.0651 180.497 80.2384 180.017V178.917H78.0984C76.8184 178.917 76.1784 179.337 76.1784 180.177C76.1784 180.577 76.3318 180.897 76.6384 181.137C76.9584 181.363 77.3918 181.477 77.9384 181.477ZM99.9622 172.497C101.309 172.497 102.376 172.897 103.162 173.697C103.962 174.483 104.362 175.67 104.362 177.257V183.417H101.242V177.737C101.242 176.883 101.062 176.25 100.702 175.837C100.356 175.41 99.8555 175.197 99.2022 175.197C98.4689 175.197 97.8889 175.437 97.4622 175.917C97.0355 176.383 96.8222 177.083 96.8222 178.017V183.417H93.7022V177.737C93.7022 176.043 93.0222 175.197 91.6622 175.197C90.9422 175.197 90.3689 175.437 89.9422 175.917C89.5155 176.383 89.3022 177.083 89.3022 178.017V183.417H86.1822V172.657H89.1622V173.897C89.5622 173.443 90.0489 173.097 90.6222 172.857C91.2089 172.617 91.8489 172.497 92.5422 172.497C93.3022 172.497 93.9889 172.65 94.6022 172.957C95.2155 173.25 95.7089 173.683 96.0822 174.257C96.5222 173.697 97.0755 173.263 97.7422 172.957C98.4222 172.65 99.1622 172.497 99.9622 172.497Z"
                            fill="#32352C" />
                        <path
                            d="M154.447 420.008C157.166 420.008 159.168 420.55 160.454 421.634C161.758 422.717 162.41 424.168 162.41 425.987C162.41 427.163 162.116 428.237 161.529 429.211C160.941 430.166 160.041 430.937 158.828 431.525C157.634 432.095 156.156 432.379 154.392 432.379C153.033 432.379 151.692 432.205 150.37 431.856C149.065 431.488 147.954 430.974 147.036 430.313L148.799 426.896C149.534 427.447 150.379 427.879 151.334 428.191C152.289 428.485 153.272 428.632 154.282 428.632C155.403 428.632 156.284 428.412 156.927 427.971C157.57 427.53 157.892 426.915 157.892 426.125C157.892 425.298 157.552 424.674 156.872 424.251C156.211 423.829 155.054 423.617 153.4 423.617H148.468L149.46 412.761H161.226V416.343H153.18L152.877 420.008H154.447ZM168.416 423.177C167.002 423.177 165.844 422.699 164.944 421.744C164.063 420.77 163.622 419.475 163.622 417.859C163.622 416.242 164.063 414.956 164.944 414.001C165.844 413.028 167.002 412.541 168.416 412.541C169.83 412.541 170.978 413.028 171.86 414.001C172.742 414.956 173.183 416.242 173.183 417.859C173.183 419.475 172.742 420.77 171.86 421.744C170.978 422.699 169.83 423.177 168.416 423.177ZM179.906 412.761H183.184L170.014 432.049H166.735L179.906 412.761ZM168.416 420.917C169.04 420.917 169.527 420.66 169.876 420.146C170.244 419.631 170.427 418.869 170.427 417.859C170.427 416.848 170.244 416.086 169.876 415.572C169.527 415.058 169.04 414.8 168.416 414.8C167.81 414.8 167.323 415.067 166.956 415.599C166.588 416.114 166.405 416.867 166.405 417.859C166.405 418.851 166.588 419.613 166.956 420.146C167.323 420.66 167.81 420.917 168.416 420.917ZM181.504 432.269C180.585 432.269 179.759 432.058 179.024 431.635C178.308 431.195 177.747 430.57 177.343 429.762C176.939 428.954 176.737 428.017 176.737 426.951C176.737 425.886 176.939 424.949 177.343 424.141C177.747 423.333 178.308 422.717 179.024 422.295C179.759 421.854 180.585 421.634 181.504 421.634C182.918 421.634 184.066 422.12 184.948 423.094C185.848 424.049 186.298 425.335 186.298 426.951C186.298 428.568 185.848 429.863 184.948 430.836C184.066 431.792 182.918 432.269 181.504 432.269ZM181.504 430.01C182.128 430.01 182.615 429.753 182.964 429.238C183.331 428.706 183.515 427.943 183.515 426.951C183.515 425.959 183.331 425.206 182.964 424.692C182.615 424.159 182.128 423.893 181.504 423.893C180.898 423.893 180.411 424.15 180.043 424.664C179.676 425.179 179.492 425.941 179.492 426.951C179.492 427.962 179.676 428.724 180.043 429.238C180.411 429.753 180.898 430.01 181.504 430.01Z"
                            fill="#666666" />
                        <path
                            d="M290.375 608.288C293.094 608.288 295.096 608.83 296.382 609.914C297.686 610.998 298.338 612.449 298.338 614.267C298.338 615.443 298.044 616.518 297.456 617.491C296.869 618.446 295.969 619.218 294.756 619.806C293.562 620.375 292.084 620.66 290.32 620.66C288.961 620.66 287.62 620.485 286.297 620.136C284.993 619.769 283.882 619.255 282.963 618.593L284.727 615.177C285.462 615.728 286.307 616.159 287.262 616.472C288.217 616.766 289.2 616.912 290.21 616.912C291.33 616.912 292.212 616.692 292.855 616.251C293.498 615.81 293.819 615.195 293.819 614.405C293.819 613.579 293.48 612.954 292.8 612.532C292.139 612.109 290.981 611.898 289.328 611.898H284.396L285.388 601.042H297.153V604.624H289.108L288.805 608.288H290.375ZM304.344 611.457C302.929 611.457 301.772 610.979 300.872 610.024C299.99 609.051 299.549 607.756 299.549 606.139C299.549 604.523 299.99 603.237 300.872 602.282C301.772 601.308 302.929 600.821 304.344 600.821C305.758 600.821 306.906 601.308 307.788 602.282C308.67 603.237 309.11 604.523 309.11 606.139C309.11 607.756 308.67 609.051 307.788 610.024C306.906 610.979 305.758 611.457 304.344 611.457ZM315.833 601.042H319.112L305.942 620.329H302.663L315.833 601.042ZM304.344 609.198C304.968 609.198 305.455 608.94 305.804 608.426C306.171 607.912 306.355 607.149 306.355 606.139C306.355 605.129 306.171 604.367 305.804 603.852C305.455 603.338 304.968 603.081 304.344 603.081C303.737 603.081 303.251 603.347 302.883 603.88C302.516 604.394 302.332 605.147 302.332 606.139C302.332 607.131 302.516 607.893 302.883 608.426C303.251 608.94 303.737 609.198 304.344 609.198ZM317.431 620.55C316.513 620.55 315.686 620.338 314.952 619.916C314.235 619.475 313.675 618.85 313.271 618.042C312.867 617.234 312.665 616.297 312.665 615.232C312.665 614.166 312.867 613.23 313.271 612.421C313.675 611.613 314.235 610.998 314.952 610.575C315.686 610.134 316.513 609.914 317.431 609.914C318.846 609.914 319.994 610.401 320.876 611.374C321.776 612.329 322.226 613.615 322.226 615.232C322.226 616.848 321.776 618.143 320.876 619.117C319.994 620.072 318.846 620.55 317.431 620.55ZM317.431 618.29C318.056 618.29 318.543 618.033 318.892 617.519C319.259 616.986 319.443 616.224 319.443 615.232C319.443 614.24 319.259 613.487 318.892 612.972C318.543 612.44 318.056 612.173 317.431 612.173C316.825 612.173 316.339 612.43 315.971 612.945C315.604 613.459 315.42 614.221 315.42 615.232C315.42 616.242 315.604 617.004 315.971 617.519C316.339 618.033 316.825 618.29 317.431 618.29Z"
                            fill="#666666" />
                        <path
                            d="M254.623 698.311L250.043 712.311H246.563L243.483 702.831L240.303 712.311H236.843L232.243 698.311H235.603L238.763 708.151L242.063 698.311H245.063L248.263 708.231L251.523 698.311H254.623ZM260.531 712.471C259.397 712.471 258.377 712.238 257.471 711.771C256.577 711.291 255.877 710.631 255.371 709.791C254.864 708.951 254.611 707.998 254.611 706.931C254.611 705.864 254.864 704.911 255.371 704.071C255.877 703.231 256.577 702.578 257.471 702.111C258.377 701.631 259.397 701.391 260.531 701.391C261.664 701.391 262.677 701.631 263.571 702.111C264.464 702.578 265.164 703.231 265.671 704.071C266.177 704.911 266.431 705.864 266.431 706.931C266.431 707.998 266.177 708.951 265.671 709.791C265.164 710.631 264.464 711.291 263.571 711.771C262.677 712.238 261.664 712.471 260.531 712.471ZM260.531 709.911C261.331 709.911 261.984 709.644 262.491 709.111C263.011 708.564 263.271 707.838 263.271 706.931C263.271 706.024 263.011 705.304 262.491 704.771C261.984 704.224 261.331 703.951 260.531 703.951C259.731 703.951 259.071 704.224 258.551 704.771C258.031 705.304 257.771 706.024 257.771 706.931C257.771 707.838 258.031 708.564 258.551 709.111C259.071 709.644 259.731 709.911 260.531 709.911ZM271.496 702.971C271.87 702.451 272.37 702.058 272.996 701.791C273.636 701.524 274.37 701.391 275.196 701.391V704.271C274.85 704.244 274.616 704.231 274.496 704.231C273.603 704.231 272.903 704.484 272.396 704.991C271.89 705.484 271.636 706.231 271.636 707.231V712.311H268.516V701.551H271.496V702.971ZM281.671 708.091L280.171 709.571V712.311H277.051V697.471H280.171V705.871L284.731 701.551H288.451L283.971 706.111L288.851 712.311H285.071L281.671 708.091ZM300.326 706.971C300.326 707.011 300.306 707.291 300.266 707.811H292.126C292.272 708.478 292.619 709.004 293.166 709.391C293.712 709.778 294.392 709.971 295.206 709.971C295.766 709.971 296.259 709.891 296.686 709.731C297.126 709.558 297.532 709.291 297.906 708.931L299.566 710.731C298.552 711.891 297.072 712.471 295.126 712.471C293.912 712.471 292.839 712.238 291.906 711.771C290.972 711.291 290.252 710.631 289.746 709.791C289.239 708.951 288.986 707.998 288.986 706.931C288.986 705.878 289.232 704.931 289.726 704.091C290.232 703.238 290.919 702.578 291.786 702.111C292.666 701.631 293.646 701.391 294.726 701.391C295.779 701.391 296.732 701.618 297.586 702.071C298.439 702.524 299.106 703.178 299.586 704.031C300.079 704.871 300.326 705.851 300.326 706.971ZM294.746 703.751C294.039 703.751 293.446 703.951 292.966 704.351C292.486 704.751 292.192 705.298 292.086 705.991H297.386C297.279 705.311 296.986 704.771 296.506 704.371C296.026 703.958 295.439 703.751 294.746 703.751ZM305.383 702.971C305.756 702.451 306.256 702.058 306.883 701.791C307.523 701.524 308.256 701.391 309.083 701.391V704.271C308.736 704.244 308.503 704.231 308.383 704.231C307.49 704.231 306.79 704.484 306.283 704.991C305.776 705.484 305.523 706.231 305.523 707.231V712.311H302.403V701.551H305.383V702.971ZM314.597 712.471C313.704 712.471 312.83 712.364 311.977 712.151C311.124 711.924 310.444 711.644 309.937 711.311L310.977 709.071C311.457 709.378 312.037 709.631 312.717 709.831C313.397 710.018 314.064 710.111 314.717 710.111C316.037 710.111 316.697 709.784 316.697 709.131C316.697 708.824 316.517 708.604 316.157 708.471C315.797 708.338 315.244 708.224 314.497 708.131C313.617 707.998 312.89 707.844 312.317 707.671C311.744 707.498 311.244 707.191 310.817 706.751C310.404 706.311 310.197 705.684 310.197 704.871C310.197 704.191 310.39 703.591 310.777 703.071C311.177 702.538 311.75 702.124 312.497 701.831C313.257 701.538 314.15 701.391 315.177 701.391C315.937 701.391 316.69 701.478 317.437 701.651C318.197 701.811 318.824 702.038 319.317 702.331L318.277 704.551C317.33 704.018 316.297 703.751 315.177 703.751C314.51 703.751 314.01 703.844 313.677 704.031C313.344 704.218 313.177 704.458 313.177 704.751C313.177 705.084 313.357 705.318 313.717 705.451C314.077 705.584 314.65 705.711 315.437 705.831C316.317 705.978 317.037 706.138 317.597 706.311C318.157 706.471 318.644 706.771 319.057 707.211C319.47 707.651 319.677 708.264 319.677 709.051C319.677 709.718 319.477 710.311 319.077 710.831C318.677 711.351 318.09 711.758 317.317 712.051C316.557 712.331 315.65 712.471 314.597 712.471Z"
                            fill="#32352C" />
                        <path
                            d="M318.664 98.984C339.609 104.596 358.257 116.629 371.935 133.359L320.667 174.475C315.8 168.523 309.165 164.241 301.713 162.245L318.664 98.984Z"
                            fill="url(#paint59_linear_120_2172)" />
                        <path
                            d="M261.372 490.811C254.039 495.827 245.962 499.657 237.437 502.162L222.163 450.175C225.233 449.273 228.141 447.894 230.781 446.088L261.372 490.811Z"
                            fill="#D9D9D9" />
                        <path
                            d="M261.372 490.811C254.039 495.827 245.962 499.657 237.437 502.162L222.163 450.175C225.233 449.273 228.141 447.894 230.781 446.088L261.372 490.811Z"
                            fill="#8CC63F" />
                        <path
                            d="M391.587 605.725C388.952 612.76 385.225 619.336 380.545 625.213L341.487 594.103C342.903 592.325 344.031 590.336 344.828 588.207L391.587 605.725Z"
                            fill="#D9D9D9" />
                        <path
                            d="M391.587 605.725C388.952 612.76 385.225 619.336 380.545 625.213L341.487 594.103C342.903 592.325 344.031 590.336 344.828 588.207L391.587 605.725Z"
                            fill="#77C4D3" />
                    </g>
                    <defs>
                        <radialGradient id="paint0_radial_120_2172" cx="0" cy="0" r="1" gradientUnits="userSpaceOnUse"
                            gradientTransform="translate(298.745 599.566) rotate(136.332) scale(88.599 88.599)">
                            <stop stop-color="#A6A8AB" />
                            <stop offset="0.26" stop-color="#C1C2C4" />
                            <stop offset="0.75" stop-color="#EEEEEF" />
                            <stop offset="1" stop-color="white" />
                        </radialGradient>
                        <linearGradient id="paint1_linear_120_2172" x1="266.173" y1="636.064" x2="388.344" y2="513.893"
                            gradientUnits="userSpaceOnUse">
                            <stop stop-color="#E6E7E8" />
                            <stop offset="1" stop-color="white" />
                        </linearGradient>
                        <radialGradient id="paint2_radial_120_2172" cx="0" cy="0" r="1" gradientUnits="userSpaceOnUse"
                            gradientTransform="translate(185.243 450.723) rotate(136.332) scale(109.367 109.367)">
                            <stop stop-color="#A6A8AB" />
                            <stop offset="0.26" stop-color="#C1C2C4" />
                            <stop offset="0.75" stop-color="#EEEEEF" />
                            <stop offset="1" stop-color="white" />
                        </radialGradient>
                        <radialGradient id="paint3_radial_120_2172" cx="0" cy="0" r="1" gradientUnits="userSpaceOnUse"
                            gradientTransform="translate(194.792 441.343) rotate(136.332) scale(109.367 109.367)">
                            <stop stop-color="#A6A8AB" />
                            <stop offset="0.26" stop-color="#C1C2C4" />
                            <stop offset="0.75" stop-color="#EEEEEF" />
                            <stop offset="1" stop-color="white" />
                        </radialGradient>
                        <linearGradient id="paint4_linear_120_2172" x1="140.604" y1="498.693" x2="292.992" y2="346.305"
                            gradientUnits="userSpaceOnUse">
                            <stop stop-color="#E6E7E8" />
                            <stop offset="1" stop-color="white" />
                        </linearGradient>
                        <radialGradient id="paint5_radial_120_2172" cx="0" cy="0" r="1" gradientUnits="userSpaceOnUse"
                            gradientTransform="translate(255.002 229.558) rotate(136.332) scale(136.681 136.681)">
                            <stop stop-color="#A6A8AB" />
                            <stop offset="0.26" stop-color="#C1C2C4" />
                            <stop offset="0.75" stop-color="#EEEEEF" />
                            <stop offset="1" stop-color="white" />
                        </radialGradient>
                        <radialGradient id="paint6_radial_120_2172" cx="0" cy="0" r="1" gradientUnits="userSpaceOnUse"
                            gradientTransform="translate(283.866 201.2) rotate(136.332) scale(136.681 136.681)">
                            <stop stop-color="#A6A8AB" />
                            <stop offset="0.26" stop-color="#C1C2C4" />
                            <stop offset="0.75" stop-color="#EEEEEF" />
                            <stop offset="1" stop-color="white" />
                        </radialGradient>
                        <linearGradient id="paint7_linear_120_2172" x1="172.858" y1="268.283" x2="405.72" y2="126.412"
                            gradientUnits="userSpaceOnUse">
                            <stop stop-color="#E6E7E8" />
                            <stop offset="1" stop-color="white" />
                        </linearGradient>
                        <radialGradient id="paint8_radial_120_2172" cx="0" cy="0" r="1" gradientUnits="userSpaceOnUse"
                            gradientTransform="translate(291.018 211.312) rotate(135.725) scale(24.2079 13.1782)">
                            <stop stop-color="#A6A8AB" />
                            <stop offset="0.15" stop-color="#C0C1C3" />
                            <stop offset="0.36" stop-color="#DBDCDD" />
                            <stop offset="0.57" stop-color="#EFEFF0" />
                            <stop offset="0.79" stop-color="#FBFBFB" />
                            <stop offset="1" stop-color="white" />
                        </radialGradient>
                        <radialGradient id="paint9_radial_120_2172" cx="0" cy="0" r="1" gradientUnits="userSpaceOnUse"
                            gradientTransform="translate(277.304 199.701) rotate(135.725) scale(24.2079 13.1782)">
                            <stop stop-color="#A6A8AB" />
                            <stop offset="0.15" stop-color="#C0C1C3" />
                            <stop offset="0.36" stop-color="#DBDCDD" />
                            <stop offset="0.57" stop-color="#EFEFF0" />
                            <stop offset="0.79" stop-color="#FBFBFB" />
                            <stop offset="1" stop-color="white" />
                        </radialGradient>
                        <radialGradient id="paint10_radial_120_2172" cx="0" cy="0" r="1" gradientUnits="userSpaceOnUse"
                            gradientTransform="translate(279.405 211.213) rotate(135.725) scale(24.2079 13.1782)">
                            <stop stop-color="#A6A8AB" />
                            <stop offset="0.15" stop-color="#C0C1C3" />
                            <stop offset="0.36" stop-color="#DBDCDD" />
                            <stop offset="0.57" stop-color="#EFEFF0" />
                            <stop offset="0.79" stop-color="#FBFBFB" />
                            <stop offset="1" stop-color="white" />
                        </radialGradient>
                        <radialGradient id="paint11_radial_120_2172" cx="0" cy="0" r="1" gradientUnits="userSpaceOnUse"
                            gradientTransform="translate(287.91 196.852) rotate(136.332) scale(21.4137 21.4137)">
                            <stop stop-color="#A6A8AB" />
                            <stop offset="0.26" stop-color="#C1C2C4" />
                            <stop offset="0.75" stop-color="#EEEEEF" />
                            <stop offset="1" stop-color="white" />
                        </radialGradient>
                        <radialGradient id="paint12_radial_120_2172" cx="0" cy="0" r="1" gradientUnits="userSpaceOnUse"
                            gradientTransform="translate(295.417 206.893) rotate(135.725) scale(24.2079 13.1782)">
                            <stop stop-color="#A6A8AB" />
                            <stop offset="0.15" stop-color="#C0C1C3" />
                            <stop offset="0.36" stop-color="#DBDCDD" />
                            <stop offset="0.57" stop-color="#EFEFF0" />
                            <stop offset="0.79" stop-color="#FBFBFB" />
                            <stop offset="1" stop-color="white" />
                        </radialGradient>
                        <radialGradient id="paint13_radial_120_2172" cx="0" cy="0" r="1" gradientUnits="userSpaceOnUse"
                            gradientTransform="translate(281.703 195.282) rotate(135.725) scale(24.2079 13.1782)">
                            <stop stop-color="#A6A8AB" />
                            <stop offset="0.15" stop-color="#C0C1C3" />
                            <stop offset="0.36" stop-color="#DBDCDD" />
                            <stop offset="0.57" stop-color="#EFEFF0" />
                            <stop offset="0.79" stop-color="#FBFBFB" />
                            <stop offset="1" stop-color="white" />
                        </radialGradient>
                        <radialGradient id="paint14_radial_120_2172" cx="0" cy="0" r="1" gradientUnits="userSpaceOnUse"
                            gradientTransform="translate(283.807 206.791) rotate(135.725) scale(24.2079 13.1782)">
                            <stop stop-color="#A6A8AB" />
                            <stop offset="0.15" stop-color="#C0C1C3" />
                            <stop offset="0.36" stop-color="#DBDCDD" />
                            <stop offset="0.57" stop-color="#EFEFF0" />
                            <stop offset="0.79" stop-color="#FBFBFB" />
                            <stop offset="1" stop-color="white" />
                        </radialGradient>
                        <radialGradient id="paint15_radial_120_2172" cx="0" cy="0" r="1" gradientUnits="userSpaceOnUse"
                            gradientTransform="translate(292.433 192.411) rotate(136.332) scale(21.4137)">
                            <stop stop-color="#A6A8AB" />
                            <stop offset="0.26" stop-color="#C1C2C4" />
                            <stop offset="0.75" stop-color="#EEEEEF" />
                            <stop offset="1" stop-color="white" />
                        </radialGradient>
                        <linearGradient id="paint16_linear_120_2172" x1="274.052" y1="207.023" x2="310.533" y2="184.797"
                            gradientUnits="userSpaceOnUse">
                            <stop stop-color="#E6E7E8" />
                            <stop offset="1" stop-color="white" />
                        </linearGradient>
                        <linearGradient id="paint17_linear_120_2172" x1="277.928" y1="206.647" x2="302.864" y2="181.711"
                            gradientUnits="userSpaceOnUse">
                            <stop offset="0.15" stop-color="#D4145A" />
                            <stop offset="1" stop-color="#D44076" />
                        </linearGradient>
                        <linearGradient id="paint18_linear_120_2172" x1="281.299" y1="210.017" x2="306.235" y2="185.082"
                            gradientUnits="userSpaceOnUse">
                            <stop offset="0.15" stop-color="#D4145A" />
                            <stop offset="1" stop-color="#D44076" />
                        </linearGradient>
                        <linearGradient id="paint19_linear_120_2172" x1="279.81" y1="208.529" x2="304.745" y2="183.594"
                            gradientUnits="userSpaceOnUse">
                            <stop offset="0.15" stop-color="#D4145A" />
                            <stop offset="1" stop-color="#D44076" />
                        </linearGradient>
                        <radialGradient id="paint20_radial_120_2172" cx="0" cy="0" r="1" gradientUnits="userSpaceOnUse"
                            gradientTransform="translate(216.972 435.311) rotate(135.725) scale(22.3197 12.1503)">
                            <stop stop-color="#A6A8AB" />
                            <stop offset="0.15" stop-color="#C0C1C3" />
                            <stop offset="0.36" stop-color="#DBDCDD" />
                            <stop offset="0.57" stop-color="#EFEFF0" />
                            <stop offset="0.79" stop-color="#FBFBFB" />
                            <stop offset="1" stop-color="white" />
                        </radialGradient>
                        <radialGradient id="paint21_radial_120_2172" cx="0" cy="0" r="1" gradientUnits="userSpaceOnUse"
                            gradientTransform="translate(204.328 424.609) rotate(135.725) scale(22.3197 12.1503)">
                            <stop stop-color="#A6A8AB" />
                            <stop offset="0.15" stop-color="#C0C1C3" />
                            <stop offset="0.36" stop-color="#DBDCDD" />
                            <stop offset="0.57" stop-color="#EFEFF0" />
                            <stop offset="0.79" stop-color="#FBFBFB" />
                            <stop offset="1" stop-color="white" />
                        </radialGradient>
                        <radialGradient id="paint22_radial_120_2172" cx="0" cy="0" r="1" gradientUnits="userSpaceOnUse"
                            gradientTransform="translate(206.264 435.219) rotate(135.725) scale(22.3197 12.1503)">
                            <stop stop-color="#A6A8AB" />
                            <stop offset="0.15" stop-color="#C0C1C3" />
                            <stop offset="0.36" stop-color="#DBDCDD" />
                            <stop offset="0.57" stop-color="#EFEFF0" />
                            <stop offset="0.79" stop-color="#FBFBFB" />
                            <stop offset="1" stop-color="white" />
                        </radialGradient>
                        <radialGradient id="paint23_radial_120_2172" cx="0" cy="0" r="1" gradientUnits="userSpaceOnUse"
                            gradientTransform="translate(209.558 422.945) rotate(136.332) scale(19.7405)">
                            <stop stop-color="#A6A8AB" />
                            <stop offset="0.26" stop-color="#C1C2C4" />
                            <stop offset="0.75" stop-color="#EEEEEF" />
                            <stop offset="1" stop-color="white" />
                        </radialGradient>
                        <radialGradient id="paint24_radial_120_2172" cx="0" cy="0" r="1" gradientUnits="userSpaceOnUse"
                            gradientTransform="translate(221.027 431.239) rotate(135.725) scale(22.3197 12.1503)">
                            <stop stop-color="#A6A8AB" />
                            <stop offset="0.15" stop-color="#C0C1C3" />
                            <stop offset="0.36" stop-color="#DBDCDD" />
                            <stop offset="0.57" stop-color="#EFEFF0" />
                            <stop offset="0.79" stop-color="#FBFBFB" />
                            <stop offset="1" stop-color="white" />
                        </radialGradient>
                        <radialGradient id="paint25_radial_120_2172" cx="0" cy="0" r="1" gradientUnits="userSpaceOnUse"
                            gradientTransform="translate(208.385 420.536) rotate(135.725) scale(22.3197 12.1503)">
                            <stop stop-color="#A6A8AB" />
                            <stop offset="0.15" stop-color="#C0C1C3" />
                            <stop offset="0.36" stop-color="#DBDCDD" />
                            <stop offset="0.57" stop-color="#EFEFF0" />
                            <stop offset="0.79" stop-color="#FBFBFB" />
                            <stop offset="1" stop-color="white" />
                        </radialGradient>
                        <radialGradient id="paint26_radial_120_2172" cx="0" cy="0" r="1" gradientUnits="userSpaceOnUse"
                            gradientTransform="translate(210.327 431.144) rotate(135.725) scale(22.3197 12.1503)">
                            <stop stop-color="#A6A8AB" />
                            <stop offset="0.15" stop-color="#C0C1C3" />
                            <stop offset="0.36" stop-color="#DBDCDD" />
                            <stop offset="0.57" stop-color="#EFEFF0" />
                            <stop offset="0.79" stop-color="#FBFBFB" />
                            <stop offset="1" stop-color="white" />
                        </radialGradient>
                        <radialGradient id="paint27_radial_120_2172" cx="0" cy="0" r="1" gradientUnits="userSpaceOnUse"
                            gradientTransform="translate(213.73 418.848) rotate(136.332) scale(19.7405)">
                            <stop stop-color="#A6A8AB" />
                            <stop offset="0.26" stop-color="#C1C2C4" />
                            <stop offset="0.75" stop-color="#EEEEEF" />
                            <stop offset="1" stop-color="white" />
                        </radialGradient>
                        <linearGradient id="paint28_linear_120_2172" x1="199.586" y1="432.299" x2="233.219" y2="411.808"
                            gradientUnits="userSpaceOnUse">
                            <stop stop-color="#E6E7E8" />
                            <stop offset="1" stop-color="white" />
                        </linearGradient>
                        <radialGradient id="paint29_radial_120_2172" cx="0" cy="0" r="1" gradientUnits="userSpaceOnUse"
                            gradientTransform="translate(326.953 587.164) rotate(135.725) scale(17.5838 9.57222)">
                            <stop stop-color="#A6A8AB" />
                            <stop offset="0.15" stop-color="#C0C1C3" />
                            <stop offset="0.36" stop-color="#DBDCDD" />
                            <stop offset="0.57" stop-color="#EFEFF0" />
                            <stop offset="0.79" stop-color="#FBFBFB" />
                            <stop offset="1" stop-color="white" />
                        </radialGradient>
                        <radialGradient id="paint30_radial_120_2172" cx="0" cy="0" r="1" gradientUnits="userSpaceOnUse"
                            gradientTransform="translate(316.992 578.736) rotate(135.725) scale(17.5787 9.56942)">
                            <stop stop-color="#A6A8AB" />
                            <stop offset="0.15" stop-color="#C0C1C3" />
                            <stop offset="0.36" stop-color="#DBDCDD" />
                            <stop offset="0.57" stop-color="#EFEFF0" />
                            <stop offset="0.79" stop-color="#FBFBFB" />
                            <stop offset="1" stop-color="white" />
                        </radialGradient>
                        <radialGradient id="paint31_radial_120_2172" cx="0" cy="0" r="1" gradientUnits="userSpaceOnUse"
                            gradientTransform="translate(318.522 587.092) rotate(135.725) scale(17.5838 9.57222)">
                            <stop stop-color="#A6A8AB" />
                            <stop offset="0.15" stop-color="#C0C1C3" />
                            <stop offset="0.36" stop-color="#DBDCDD" />
                            <stop offset="0.57" stop-color="#EFEFF0" />
                            <stop offset="0.79" stop-color="#FBFBFB" />
                            <stop offset="1" stop-color="white" />
                        </radialGradient>
                        <radialGradient id="paint32_radial_120_2172" cx="0" cy="0" r="1" gradientUnits="userSpaceOnUse"
                            gradientTransform="translate(318.315 578.201) rotate(136.332) scale(15.5505 15.5505)">
                            <stop stop-color="#A6A8AB" />
                            <stop offset="0.26" stop-color="#C1C2C4" />
                            <stop offset="0.75" stop-color="#EEEEEF" />
                            <stop offset="1" stop-color="white" />
                        </radialGradient>
                        <radialGradient id="paint33_radial_120_2172" cx="0" cy="0" r="1" gradientUnits="userSpaceOnUse"
                            gradientTransform="translate(330.147 583.957) rotate(135.725) scale(17.5787 9.56943)">
                            <stop stop-color="#A6A8AB" />
                            <stop offset="0.15" stop-color="#C0C1C3" />
                            <stop offset="0.36" stop-color="#DBDCDD" />
                            <stop offset="0.57" stop-color="#EFEFF0" />
                            <stop offset="0.79" stop-color="#FBFBFB" />
                            <stop offset="1" stop-color="white" />
                        </radialGradient>
                        <radialGradient id="paint34_radial_120_2172" cx="0" cy="0" r="1" gradientUnits="userSpaceOnUse"
                            gradientTransform="translate(320.188 575.522) rotate(135.725) scale(17.5838 9.57221)">
                            <stop stop-color="#A6A8AB" />
                            <stop offset="0.15" stop-color="#C0C1C3" />
                            <stop offset="0.36" stop-color="#DBDCDD" />
                            <stop offset="0.57" stop-color="#EFEFF0" />
                            <stop offset="0.79" stop-color="#FBFBFB" />
                            <stop offset="1" stop-color="white" />
                        </radialGradient>
                        <radialGradient id="paint35_radial_120_2172" cx="0" cy="0" r="1" gradientUnits="userSpaceOnUse"
                            gradientTransform="translate(321.715 583.884) rotate(135.725) scale(17.5787 9.56943)">
                            <stop stop-color="#A6A8AB" />
                            <stop offset="0.15" stop-color="#C0C1C3" />
                            <stop offset="0.36" stop-color="#DBDCDD" />
                            <stop offset="0.57" stop-color="#EFEFF0" />
                            <stop offset="0.79" stop-color="#FBFBFB" />
                            <stop offset="1" stop-color="white" />
                        </radialGradient>
                        <radialGradient id="paint36_radial_120_2172" cx="0" cy="0" r="1" gradientUnits="userSpaceOnUse"
                            gradientTransform="translate(321.597 574.976) rotate(136.332) scale(15.5505)">
                            <stop stop-color="#A6A8AB" />
                            <stop offset="0.26" stop-color="#C1C2C4" />
                            <stop offset="0.75" stop-color="#EEEEEF" />
                            <stop offset="1" stop-color="white" />
                        </radialGradient>
                        <linearGradient id="paint37_linear_120_2172" x1="312.132" y1="585.275" x2="338.629" y2="569.138"
                            gradientUnits="userSpaceOnUse">
                            <stop stop-color="#E6E7E8" />
                            <stop offset="1" stop-color="white" />
                        </linearGradient>
                        <radialGradient id="paint38_radial_120_2172" cx="0" cy="0" r="1" gradientUnits="userSpaceOnUse"
                            gradientTransform="translate(418.881 424.881) rotate(136.332) scale(192.885 192.885)">
                            <stop stop-color="#A6A8AB" />
                            <stop offset="0.26" stop-color="#C1C2C4" />
                            <stop offset="0.75" stop-color="#EEEEEF" />
                            <stop offset="1" stop-color="white" />
                        </radialGradient>
                        <radialGradient id="paint39_radial_120_2172" cx="0" cy="0" r="1" gradientUnits="userSpaceOnUse"
                            gradientTransform="translate(440.224 401.127) rotate(136.332) scale(192.888 192.888)">
                            <stop stop-color="#A6A8AB" />
                            <stop offset="0.26" stop-color="#C1C2C4" />
                            <stop offset="0.75" stop-color="#EEEEEF" />
                            <stop offset="1" stop-color="white" />
                        </radialGradient>
                        <linearGradient id="paint40_linear_120_2172" x1="337.131" y1="504.792" x2="604.012" y2="237.911"
                            gradientUnits="userSpaceOnUse">
                            <stop stop-color="#E6E7E8" />
                            <stop offset="1" stop-color="white" />
                        </linearGradient>
                        <linearGradient id="paint41_linear_120_2172" x1="326.721" y1="369.841" x2="617.344" y2="369.841"
                            gradientUnits="userSpaceOnUse">
                            <stop offset="0.09" stop-color="#F7931E" />
                            <stop offset="1" stop-color="#FFA640" />
                        </linearGradient>
                        <radialGradient id="paint42_radial_120_2172" cx="0" cy="0" r="1" gradientUnits="userSpaceOnUse"
                            gradientTransform="translate(468.853 392.212) rotate(135.725) scale(29.8622 16.2563)">
                            <stop stop-color="#A6A8AB" />
                            <stop offset="0.15" stop-color="#C0C1C3" />
                            <stop offset="0.36" stop-color="#DBDCDD" />
                            <stop offset="0.57" stop-color="#EFEFF0" />
                            <stop offset="0.79" stop-color="#FBFBFB" />
                            <stop offset="1" stop-color="white" />
                        </radialGradient>
                        <radialGradient id="paint43_radial_120_2172" cx="0" cy="0" r="1" gradientUnits="userSpaceOnUse"
                            gradientTransform="translate(451.934 377.893) rotate(135.725) scale(29.8622 16.2563)">
                            <stop stop-color="#A6A8AB" />
                            <stop offset="0.15" stop-color="#C0C1C3" />
                            <stop offset="0.36" stop-color="#DBDCDD" />
                            <stop offset="0.57" stop-color="#EFEFF0" />
                            <stop offset="0.79" stop-color="#FBFBFB" />
                            <stop offset="1" stop-color="white" />
                        </radialGradient>
                        <radialGradient id="paint44_radial_120_2172" cx="0" cy="0" r="1" gradientUnits="userSpaceOnUse"
                            gradientTransform="translate(454.528 392.091) rotate(135.725) scale(29.8622 16.2563)">
                            <stop stop-color="#A6A8AB" />
                            <stop offset="0.15" stop-color="#C0C1C3" />
                            <stop offset="0.36" stop-color="#DBDCDD" />
                            <stop offset="0.57" stop-color="#EFEFF0" />
                            <stop offset="0.79" stop-color="#FBFBFB" />
                            <stop offset="1" stop-color="white" />
                        </radialGradient>
                        <radialGradient id="paint45_radial_120_2172" cx="0" cy="0" r="1" gradientUnits="userSpaceOnUse"
                            gradientTransform="translate(466.698 373.787) rotate(136.332) scale(26.4138)">
                            <stop stop-color="#A6A8AB" />
                            <stop offset="0.26" stop-color="#C1C2C4" />
                            <stop offset="0.75" stop-color="#EEEEEF" />
                            <stop offset="1" stop-color="white" />
                        </radialGradient>
                        <radialGradient id="paint46_radial_120_2172" cx="0" cy="0" r="1" gradientUnits="userSpaceOnUse"
                            gradientTransform="translate(474.281 386.76) rotate(135.725) scale(29.8622 16.2563)">
                            <stop stop-color="#A6A8AB" />
                            <stop offset="0.15" stop-color="#C0C1C3" />
                            <stop offset="0.36" stop-color="#DBDCDD" />
                            <stop offset="0.57" stop-color="#EFEFF0" />
                            <stop offset="0.79" stop-color="#FBFBFB" />
                            <stop offset="1" stop-color="white" />
                        </radialGradient>
                        <radialGradient id="paint47_radial_120_2172" cx="0" cy="0" r="1" gradientUnits="userSpaceOnUse"
                            gradientTransform="translate(457.363 372.44) rotate(135.725) scale(29.8622 16.2563)">
                            <stop stop-color="#A6A8AB" />
                            <stop offset="0.15" stop-color="#C0C1C3" />
                            <stop offset="0.36" stop-color="#DBDCDD" />
                            <stop offset="0.57" stop-color="#EFEFF0" />
                            <stop offset="0.79" stop-color="#FBFBFB" />
                            <stop offset="1" stop-color="white" />
                        </radialGradient>
                        <radialGradient id="paint48_radial_120_2172" cx="0" cy="0" r="1" gradientUnits="userSpaceOnUse"
                            gradientTransform="translate(459.958 386.638) rotate(135.725) scale(29.8622 16.2563)">
                            <stop stop-color="#A6A8AB" />
                            <stop offset="0.15" stop-color="#C0C1C3" />
                            <stop offset="0.36" stop-color="#DBDCDD" />
                            <stop offset="0.57" stop-color="#EFEFF0" />
                            <stop offset="0.79" stop-color="#FBFBFB" />
                            <stop offset="1" stop-color="white" />
                        </radialGradient>
                        <radialGradient id="paint49_radial_120_2172" cx="0" cy="0" r="1" gradientUnits="userSpaceOnUse"
                            gradientTransform="translate(472.276 368.307) rotate(136.332) scale(26.4138)">
                            <stop stop-color="#A6A8AB" />
                            <stop offset="0.26" stop-color="#C1C2C4" />
                            <stop offset="0.75" stop-color="#EEEEEF" />
                            <stop offset="1" stop-color="white" />
                        </radialGradient>
                        <linearGradient id="paint50_linear_120_2172" x1="451.101" y1="383.447" x2="496.095" y2="356.031"
                            gradientUnits="userSpaceOnUse">
                            <stop stop-color="#E6E7E8" />
                            <stop offset="1" stop-color="white" />
                        </linearGradient>
                        <linearGradient id="paint51_linear_120_2172" x1="456.831" y1="385.026" x2="488.765" y2="353.101"
                            gradientUnits="userSpaceOnUse">
                            <stop offset="0.15" stop-color="#F15A24" />
                            <stop offset="1" stop-color="#F18C68" />
                        </linearGradient>
                        <linearGradient id="paint52_linear_120_2172" x1="457.659" y1="385.844" x2="489.584" y2="353.919"
                            gradientUnits="userSpaceOnUse">
                            <stop offset="0.09" stop-color="#F7931E" />
                            <stop offset="1" stop-color="#FFA640" />
                        </linearGradient>
                        <linearGradient id="paint53_linear_120_2172" x1="315.3" y1="80.8937" x2="433.614" y2="80.8937"
                            gradientUnits="userSpaceOnUse">
                            <stop offset="0.15" stop-color="#D4145A" />
                            <stop offset="1" stop-color="#D44076" />
                        </linearGradient>
                        <linearGradient id="paint54_linear_120_2172" x1="315.3" y1="80.8937" x2="433.614" y2="80.8937"
                            gradientUnits="userSpaceOnUse">
                            <stop offset="0.15" stop-color="#D4145A" />
                            <stop offset="1" stop-color="#D44076" />
                        </linearGradient>
                        <linearGradient id="paint55_linear_120_2172" x1="324.429" y1="52.5965" x2="445.636" y2="52.5965"
                            gradientUnits="userSpaceOnUse">
                            <stop offset="0.15" stop-color="#D4145A" />
                            <stop offset="1" stop-color="#D44076" />
                        </linearGradient>
                        <linearGradient id="paint56_linear_120_2172" x1="490.998" y1="183.401" x2="622.28" y2="183.401"
                            gradientUnits="userSpaceOnUse">
                            <stop offset="0.09" stop-color="#F7931E" />
                            <stop offset="1" stop-color="#FFA640" />
                        </linearGradient>
                        <linearGradient id="paint57_linear_120_2172" x1="495.314" y1="141.41" x2="635.239" y2="141.41"
                            gradientUnits="userSpaceOnUse">
                            <stop offset="0.09" stop-color="#F7931E" />
                            <stop offset="1" stop-color="#FFA640" />
                        </linearGradient>
                        <linearGradient id="paint58_linear_120_2172" x1="495.315" y1="181.518" x2="635.24" y2="181.518"
                            gradientUnits="userSpaceOnUse">
                            <stop offset="0.09" stop-color="#F7931E" />
                            <stop offset="1" stop-color="#FFA640" />
                        </linearGradient>
                        <linearGradient id="paint59_linear_120_2172" x1="266.01" y1="295.373" x2="318.633" y2="98.9795"
                            gradientUnits="userSpaceOnUse">
                            <stop offset="0.15" stop-color="#D4145A" />
                            <stop offset="1" stop-color="#D44076" />
                        </linearGradient>
                        <clipPath id="clip0_120_2172">
                            <rect width="734.754" height="734.754" fill="white"
                                transform="translate(0.367188 0.015625)" />
                        </clipPath>
                    </defs>
                </svg>