<svg width="20" height="20" viewBox="0 0 20 20" fill="none" xmlns="http://www.w3.org/2000/svg">
<path d="M11.3099 18.4C9.98761 18.6066 8.63523 18.498 7.36284 18.083C6.09044 17.6681 4.93401 16.9586 3.98766 16.0123C3.04132 15.0659 2.33181 13.9095 1.91689 12.6371C1.50197 11.3647 1.39336 10.0123 1.59991 8.69C1.07865 7.69851 0.888169 6.56629 1.05632 5.45882C1.22448 4.35135 1.74244 3.32669 2.53452 2.53461C3.3266 1.74254 4.35125 1.22457 5.45873 1.05641C6.5662 0.88826 7.69842 1.07874 8.68991 1.6C10.0122 1.39345 11.3646 1.50206 12.637 1.91698C13.9094 2.3319 15.0658 3.04141 16.0122 3.98776C16.9585 4.9341 17.668 6.09054 18.0829 7.36293C18.4979 8.63532 18.6065 9.98771 18.3999 11.31C18.9212 12.3015 19.1117 13.4337 18.9435 14.5412C18.7754 15.6487 18.2574 16.6733 17.4653 17.4654C16.6732 18.2575 15.6486 18.7754 14.5411 18.9436C13.4336 19.1117 12.3014 18.9213 11.3099 18.4ZM10.0519 15.156H10.0119C12.8839 15.156 14.3149 13.77 14.3149 11.913C14.3149 10.715 13.7639 9.44201 11.5889 8.955L9.60591 8.51501C8.85091 8.34301 7.98391 8.115 7.98391 7.4C7.98391 6.685 8.60391 6.18701 9.70791 6.18701C11.9379 6.18701 11.7349 7.715 12.8389 7.715C13.4149 7.715 13.9319 7.373 13.9319 6.785C13.9319 5.415 11.7349 4.38501 9.87591 4.38501C7.85491 4.38501 5.70291 5.24401 5.70291 7.52901C5.70291 8.62701 6.09691 9.799 8.26291 10.342L10.9519 11.013C11.7679 11.215 11.9699 11.672 11.9699 12.085C11.9699 12.772 11.2859 13.443 10.0519 13.443C7.63491 13.443 7.97391 11.586 6.67791 11.586C6.09791 11.586 5.67491 11.984 5.67491 12.557C5.67491 13.671 7.02691 15.155 10.0519 15.155V15.156Z" fill="#FF5300"/>
</svg>
